<svg xmlns="http://www.w3.org/2000/svg" version="1.1" x="0" y="0" width="1000" height="300" viewBox="0 0 1000 300" xml:space="preserve"><style type="text/css">#water{-webkit-animation:wave 3s ease-in-out infinite alternate;animation:wave 3s ease-in-out infinite alternate}@-webkit-keyframes wave{0%{transform:translate3d(0,0,0);animation-timing-function:ease-out}100%{transform:translate3d(0,30px,0);animation-timing-function:ease-out}}#wet-sand{-webkit-animation:dry 3s ease-in-out infinite alternate;animation:dry 3s ease-in-out infinite alternate}@-webkit-keyframes dry{0%{opacity:1}100%{opacity:.5}}
</style><g id="beach"><g id="sky"/><g id="sand"><g><linearGradient id="SVGID_1_" gradientUnits="userSpaceOnUse" x1="0" y1="0" x2="1" y2="0" gradientTransform="matrix(-7.125090e-006 163.0031 163.0031 7.125090e-006 502.9844 10.0284)"><stop offset="0" stop-color="#D4EDED"/><stop offset="1" stop-color="#9ED8D2"/></linearGradient><rect y="-6" width="1006" height="315" fill="url(#SVGID_1_)"/><linearGradient id="SVGID_2_" gradientUnits="userSpaceOnUse" x1="0" y1="0" x2="1" y2="0" gradientTransform="matrix(-5.269420e-006 -120.5503 -120.5503 5.269420e-006 499.9901 271.2353)"><stop offset="0" stop-color="#F6C785"/><stop offset="0.5" stop-color="#F9DB94"/><stop offset="1" stop-color="#F6C785"/></linearGradient><path d="M0 280h1000V112C894.6 109 784 162 704 158c-71.5-4-158-26.5-250-28 -93.9-1.5-94-7-138 0s-92 20-144 0S74 105 0 112" fill="url(#SVGID_2_)"/><linearGradient id="SVGID_3_" gradientUnits="userSpaceOnUse" x1="0" y1="0" x2="1" y2="0" gradientTransform="matrix(-4.589213e-006 -104.989 -104.989 4.589213e-006 499.984 272.3772)"><stop offset="0" stop-color="#F6C785"/><stop offset="0.5" stop-color="#F9DB94"/><stop offset="1" stop-color="#F6C785"/></linearGradient><path d="M1 139c0 0 25-10 52-9s61 19 82 23 108 13 139 8 81-17.6 124-14.8S505 160 540 174s62 21 116 15 112-24 144-20 87.4 1.8 114.4 11.8 85.7-41.2 85.7-41.2V280H0" fill="url(#SVGID_3_)"/><linearGradient id="wet-sand_1_" gradientUnits="userSpaceOnUse" x1="-0.5" y1="0" x2="0.9" y2="0" gradientTransform="matrix(-3.027859e-006 -69.2693 -69.2693 3.027859e-006 500.0233 294.9678)"><stop offset="0" stop-color="#F6C785"/><stop offset="0.1" stop-color="#F7D18C"/><stop offset="0.3" stop-color="#F8D992"/><stop offset="0.5" stop-color="#F9DB94"/><stop offset="0.8" stop-color="#F7D18C"/><stop offset="1" stop-color="#F6C785"/></linearGradient><path id="wet-sand" d="M0 205c40.1-1.6 79 34.8 101 26.1 22-8.8 78-42.7 115-25.1s135 3.8 165 18.8c30 15 54-22.6 125-2.5s114-28.6 184-5.5c70 23.1 129.9 44.5 168 24.3 72.1-38.1 142-36.1 142-36.1 0 44.6 0 131 0 131H0" fill="url(#wet-sand_1_)"/></g></g></g><g id="water"><g id="waves"><linearGradient id="SVGID_4_" gradientUnits="userSpaceOnUse" x1="500" y1="213.1" x2="500" y2="352.3"><stop offset="0" stop-color="#9EDAE4"/><stop offset="0.2" stop-color="#96D7E3"/><stop offset="0.4" stop-color="#7FD1E0"/><stop offset="0.7" stop-color="#54C7DB"/><stop offset="1" stop-color="#00BBD6"/></linearGradient><path d="M0 208c50.1-3 79 34.1 101 25.2s78-42.9 115-25.2 135 3.8 165 18.9c30 15.1 54-22.7 125-2.5s114-28.8 184-5.6c70 23.2 126 34.2 168 24.5 55.3-12.8 53.2-33.2 142-35.3 0.1 74.3 0 194 0 194H0C0 402 0.1 247.9 0 208z" fill="url(#SVGID_4_)"/><g opacity="0.9"><g><g><path d="M-24.2 239c5.5-2.6 11.4-4.3 17.4-5.2 8-1.7 16.1-1.8 24.2-1.8 -0.4 0-0.8-0.1-1.2-0.1 2.8 0.2 5.6 0.5 8.4 0.7 -0.4 0-0.8-0.1-1.2-0.1 2.7 0.4 5.4 0.8 8.1 1.2 -0.4-0.1-0.8-0.1-1.2-0.2 4.3 0.8 8.5 1.8 12.7 3.1 3.9 1.2 7.7 2.6 11.4 4.2 8.8 3.5 17.1 8.3 25.3 12.8 5.3 2.9 10.6 5.9 16.2 8.5 2.5 1.1 5 2 7.6 2.7 1.3 0.2 2.6 0.5 3.8 0.7 2.7 0.4 5.4 0.3 8.1-0.4 3.2-0.8 6.2-2.1 8.9-3.9 3.3-2.4 6.7-4.7 10.1-6.9 8.7-5.9 18-10.9 27.4-15.5 7.4-3.7 15.2-6.5 23.1-9 9.2-2.9 18.8-3.9 28.4-4 -0.4 0-0.8 0-1.2-0.1 2.2 0.2 4.4 0.3 6.5 0.5 -0.4 0-0.8-0.1-1.2-0.1 3.3 0.4 6.5 1.2 9.6 2.4 2.9 1.2 5.6 2.8 8 4.8 -0.8-0.7-1.6-1.4-2.4-2 1.9 1.8 3.7 3.5 5.6 5.3 1.2 1.5 2.7 2.7 4.5 3.5 1.6 0.8 3.2 1.6 4.8 2.4 4 1.4 8 2.5 12.2 3.2 7.4 1.6 15.3 1.6 22.8 1.9 8.4 0.4 16.9 0.2 25.3 0.2 16.6-0.1 33.2-0.3 49.8 0.1 7.1 0.2 14.1 0.9 21.1 1.7 5.6 0.7 11 2.1 16.3 3.8 -0.4-0.2-0.7-0.3-1.1-0.5 1.6 0.8 3.2 1.6 4.8 2.5 -0.3-0.2-0.7-0.4-1-0.6 1.8 1.5 3.6 3 5.4 4.4 2.5 1.9 5.5 2 8.5 2.3 4.7 0.5 9.9-1.3 14.3-2.6 5.2-1.4 10.3-3.8 15.2-5.9 5.1-2.1 10.2-4.1 15.4-5.9 5.2-1.8 10.5-2.9 15.9-3.9 11.9-2.2 23.9-0.2 35.5 2.4 7.4 1.7 14.6 4.5 21.6 7.2 2.6 0.9 5.3 1.8 7.9 2.7 5.4 1.4 10.9 2.3 16.4 2.7 8.3 0.9 16.8-0.3 25-1.4 8.2-1 16.3-3.3 24.3-5.4 7.8-2 15.5-4.4 23.2-6.6 7.4-2.1 14.8-3.8 22.2-5.4 7.1-1.5 14.3-1.9 21.6-2.2 7.2-0.3 14.3 1 21.4 2.4 -0.4-0.1-0.8-0.2-1.1-0.3 2.8 0.8 5.5 1.5 8.3 2.3 -0.4-0.1-0.7-0.2-1.1-0.4 2.8 1 5.6 2 8.4 3 -0.4-0.1-0.7-0.3-1.1-0.4 13.7 6.1 27.5 11.6 41.6 16.7 14 5.1 28.4 9 42.9 12.6 6.8 1.5 13.6 2.8 20.6 3.8 6.6 0.9 13.2 1.5 19.8 1.7 6.4 0.2 12.7 0 19.1-0.7 3.1-0.5 6.2-1 9.2-1.4 6.1-1.2 12-3 17.8-5.3 7-3.3 14.1-6.6 21.1-10 7.7-3.5 15.5-6.6 23.5-9.5 16.3-6.2 33.4-10.2 50.4-13.5 10.6-2.1 21.4-2.9 32.2-3.5 9.7-0.5 19.3 0.4 28.8 2.5 -0.4-0.1-0.8-0.2-1.1-0.3 1.7 0.5 3.4 1.1 5 1.6 -0.4-0.1-0.7-0.2-1.1-0.4 2.1 0.7 3.9 1.9 5.5 3.4 -8.1-9.7-16.2-19.5-24.3-29.2 4.4 15.4 12 28.4 22.8 38.9 1.3-0.4-2.4-11.5-2-9.9 -2.2-7.5-4.4-15.2-7.2-22.5 -0.4-0.9-0.8-1.8-1.2-2.7 3.5 11.7 7 23.5 10.5 35.2 1.4-1.6 2.7-3.3 4.1-4.9 0-1.4-0.4-2.8-1.3-4 -2.5-4.5-5-8.9-7.7-13.3 -2.6-4.4-5.3-8.8-8.1-13.1 -0.6-1.4-1.6-2.4-2.9-3 -2.4-0.6-4.8-1.2-7.2-1.8 -4.5-1.1-9.3-1.1-13.8-1.3 -4.1 0-8.2 0.2-12.3 0.6 -2.1 0.1-4.2 0.2-6.4 0.2 -4.7 0.2-9.4 0.6-14.1 1.1 -14.4 1.4-28.6 4.3-42.6 7.3 -17.2 3.7-34.2 8.8-50.9 14.2 -7.6 2.7-15.2 5.6-22.7 8.7 -2.2 0.6-4.3 1.2-6.5 1.8 -4.7 1.1-9.4 1.7-14.2 2.1 -5.3 0.4-10.5 0.4-15.8 0.1 -9-0.2-17.9-1.8-26.8-3.2 -17.7-2.8-35-7.8-52.2-12.6 -7.9-2.2-15.7-4.5-23.6-6.8 -11.5-3.4-23.1-6.4-34.9-8.9 -5.8-1-11.7-1.7-17.6-1.9 -8.1-0.6-16.3 0.1-24.3 0.8 -12.4 1-24.6 3.8-36.7 6.3 -11.5 2.4-23 4.6-34.6 6.3 -12 1.7-23.9 1.5-36 0.4 -5.5-0.7-11-1.5-16.4-2.6 -3-0.6-6.1-1.2-9.1-1.9 -5.9-1.3-11.9-2.3-18-2.9 -5.3-0.6-10.5-0.9-15.8-1.1 -2.3-0.1-4.6-0.2-7-0.2 -4.3-0.2-8.6 0.1-12.9 0.8 -15.9 1.8-30.9 7.7-46.7 9.5 -5.1 0.6-10.4-0.2-15.4-1.4 -2.7-0.5-5.4-1.3-7.9-2.5 -5.1-1.9-10.5-2.6-15.9-3.2 -4.4-0.2-8.7-0.7-13-1.2 -7.1-0.8-14.3-1.1-21.4-1.4 -13.3-0.6-26.6-0.7-39.9-1 -13.1-0.3-26.2-0.9-39.2-2.2 -10.7-1.1-20.7-4.7-31.1-7.1 -3.7-1.3-7.5-2.4-11.3-3.3 -5.9-1.6-12.4-1.2-18.4-0.9 -4.4 0.3-8.6 1-12.9 2 -2.2 0.6-4.4 1.1-6.6 1.7 -4.1 0.9-8.1 1.9-12.1 3 -3.8 1-7.7 2-11.6 2.9 -5.8 1.4-11.2 3.7-16.8 6 -8 3.3-15.8 7.1-24.1 9.7 -1.9 0.6-3.9 1.2-5.8 1.7 -2 0.6-3.9 1-6 1 -1.7-0.4-3.4-0.8-5.1-1.2 -1-0.4-2-0.7-3-1 -2.5-0.8-5-1.7-7.4-2.7 -18.8-7.3-38.3-12.7-58.3-15.5 -12.9-1.8-26-1.1-38.9 0.2 -5.8 0.7-11.5 1.7-17.2 2.9 -2.9 0.6-5.9 1.2-8.8 1.8 -5.7 0.6-11.3 2-16.6 4.2 0.8 1.3 1.9 2.2 3.4 2.8 4.7 2.6 9.5 5.2 14.3 7.6 4.8 2.5 9.7 4.9 14.6 7.2C-27.1 238.7-25.7 239.1-24.2 239z" style="fill:#D4EDED;opacity:0.1"/><path d="M-29.8 231.1c3-1 6-2 9-3 5.7-1.4 11.4-2.5 17.2-3.2 7.6-1.1 15.4-0.6 23 0 -0.4-0.1-0.7-0.1-1.1-0.2 2.7 0.4 5.3 0.8 8 1.2 -0.4-0.1-0.7-0.1-1.1-0.2 2.5 0.5 5.1 1.1 7.6 1.6 -0.4-0.1-0.7-0.2-1.1-0.2 4.1 1 8.1 2.3 12.1 3.7 3.7 1.4 7.3 2.9 10.9 4.6 8.3 3.7 16.3 8.4 24.3 12.8 5.1 2.9 10.2 5.5 15.7 7.7 2.4 0.9 4.9 1.6 7.5 1.9 4.3 0.8 8.2-0.5 12.2-1.7 3.4-1.5 6.5-3.4 9.4-5.7 3.4-2.3 6.9-4.5 10.4-6.7 9-5.7 18.4-10.7 28.1-15.2 7.4-3.5 15.2-5.9 23.1-7.9 3.8-0.9 7.6-1.6 11.5-2.1 5.5-0.8 11.1-0.6 16.6-0.3 -0.4-0.1-0.7-0.1-1.1-0.2 2 0.4 4.1 0.7 6.1 1.1 -0.4-0.1-0.7-0.1-1.1-0.2 1.6 0.5 3.2 1 4.7 1.5 3 1.2 5.7 2.8 8.2 4.8 -0.7-0.6-1.4-1.3-2.1-1.9 2.8 2.9 5.8 5.6 8.9 8.2 1.9 1 3.8 1.9 5.7 2.9 3.9 1.5 7.9 2.6 12 3.3 2.4 0.3 4.7 0.7 7.1 1 5.2 0.5 10.4 0.9 15.6 1 8.4 0.4 16.9 0.2 25.3 0.2 16.6-0.1 33.2-0.4 49.8 0.1 7.1 0.2 14.1 0.9 21.1 1.7 5.6 0.6 11.1 2.1 16.4 3.8 -0.3-0.1-0.7-0.3-1-0.4 1.3 0.6 2.6 1.3 3.8 1.9 1.8 1.5 3.7 2.9 5.5 4.4 2.4 1.9 5.5 2 8.3 2.3 4.6 0.6 9.6-1.2 14-2.3 5.2-1.4 10.2-3.7 15.2-5.8 5.1-2.1 10.3-4.1 15.5-6 5.2-1.9 10.5-3 15.9-4.1 14.4-2.7 28.7 0.3 42.5 4.1 -0.3-0.1-0.7-0.2-1-0.3 2.8 0.9 5.5 1.8 8.3 2.7 -0.3-0.1-0.7-0.2-1-0.4 5.5 2.2 11 4.2 16.6 6 7.8 2.7 16.5 2.7 24.6 2.9 8.3 0.2 16.7-1.5 24.8-2.9 8.1-1.4 16-3.8 23.9-6 7.6-2.1 15.2-4.4 22.8-6.5 7.3-2 14.6-3.4 22-4.6 7.2-1.2 14.3-1.1 21.6-0.9 7.4 0.2 14.5 2.2 21.6 4.1 -0.3-0.1-0.7-0.2-1-0.3 2.8 1 5.6 2 8.3 3 -0.3-0.1-0.7-0.2-1-0.4 10.1 4.5 20.3 8.7 30.6 12.7 17.5 6.9 35.6 12.2 53.8 16.6 13.2 3.2 26.7 4.7 40.3 5.5 6.4 0.2 12.7 0 19-0.7 9.3-0.7 18.2-3.6 26.9-6.6 7.1-3.3 14.1-6.6 21.2-10 7.7-3.5 15.5-6.7 23.5-9.5 16.3-6.2 33.3-10.3 50.4-13.6 10.6-2.1 21.4-3 32.2-3.5 9.7-0.5 19.4 0.4 28.9 2.4 -0.3-0.1-0.7-0.2-1-0.3 1.7 0.5 3.3 1.1 5 1.6 -0.3-0.1-0.7-0.2-1-0.3 2.1 0.7 4 1.8 5.7 3.3 -0.7-0.7-1.3-1.3-2-2 0.6 0.7 1.1 1.3 1.7 2 -5.3-7.7-10.6-15.4-15.9-23 5.2 9.1 10.5 18.2 15.7 27.3 0.4 1.3 1.1 2.3 2.3 2.9 1.2-0.5-3.2-10-2.7-8.8 -2.7-6.6-5.5-13.2-8.8-19.5 -0.5-0.8-0.9-1.5-1.4-2.3 3.4 11.1 6.8 22.1 10.3 33.2 1.2-1.7 2.4-3.4 3.6-5 0.1-1.3-0.2-2.5-1-3.6 -2.1-4.1-4.3-8-6.5-12 -2.2-4-4.5-7.9-6.9-11.8 -0.5-1.3-1.4-2.2-2.6-2.7 -2.1-0.9-4.3-1.7-6.5-2.4 -4.2-1.5-8.9-1.7-13.3-2.2 -4.1-0.2-8.1-0.2-12.2 0 -6.8 0.1-13.6 0.3-20.4 0.8 -14.4 1-28.6 3.8-42.6 6.7 -17.4 3.7-34.4 9.1-51.2 15.1 -7.9 3.1-15.7 6.4-23.4 10.1 -6.8 3.1-14.3 4.1-21.5 5.2 -5.4 0.6-10.9 0.8-16.3 0.6 -9.1 0-18.3-1.5-27.2-2.9 -17.6-2.7-35-7.8-52.1-12.8 -19-5.5-37.5-12.2-56.6-17.3 -5.7-1.3-11.4-2.2-17.2-2.8 -8-1-16.1-0.5-24.1 0 -12.5 0.7-24.8 3.7-37 6.5 -11.8 2.7-23.5 5.6-35.4 7.8 -4.8 0.8-9.5 1.4-14.3 1.7 -7.5 0.7-14.9 0.2-22.3-0.4 -5.4-0.7-10.8-1.6-16.1-2.9 -2.9-0.7-5.9-1.5-8.8-2.2 -5.7-1.5-11.5-2.8-17.4-3.7 -5.2-0.8-10.3-1.4-15.5-1.8 -2.3-0.2-4.6-0.3-6.9-0.5 -4.3-0.4-8.5-0.2-12.8 0.4 -9.5 0.9-18.8 3.5-27.9 6.3 -6.9 2.1-13.7 4.6-20.8 6 -5.4 1.1-10.5 0.4-15.7-1.1 -2.6-0.6-5-1.6-7.4-2.8 -4.9-2.2-10.1-3-15.4-3.7 -4.3-0.4-8.6-0.9-12.9-1.4 -7.1-0.9-14.3-1.1-21.4-1.4 -13.4-0.6-26.9-0.5-40.3-0.7 -13.3-0.1-26.6-0.5-39.9-1.6 -4.5-0.4-9-1.2-13.4-2.4 -1.9-0.6-3.8-1.2-5.6-1.8 -3.6-1.4-7.3-2.7-11-3.9 -3.1-1.4-6.3-2.7-9.5-3.9 -4.1-1.6-8.5-2.1-12.7-2.7 -4.1-0.3-8.3-0.3-12.5 0 -2.2 0.3-4.4 0.7-6.6 1 -4.3 0.9-8.6 1.7-12.9 2.6 -4 0.9-8 1.9-12 2.9 -1.9 0.5-3.8 0.9-5.6 1.4 -3.9 0.8-7.6 2.1-11.2 3.9 -9.2 3.8-18 8.5-26.8 13.3 -5 2.7-10.1 5.1-15.5 6.9 -1.6 0.3-3.3 0.2-4.9-0.2 -3.2-0.4-6.4-2-9.4-3.1 -2.6-1.1-5.2-2.2-7.9-3.2 -4.8-2-9.5-3.9-14.3-5.8 -3.9-1.3-7.8-2.6-11.7-3.8 -6.1-2-12.2-3.8-18.4-5.4 -12.1-3.1-24.5-3.8-36.9-3.8 -8.6 0-17.1 1.4-25.5 2.7 -2.9 0.5-5.9 1.1-8.8 1.6 -5.8 0.7-11.4 2-17 3.9 0.6 1.3 1.5 2.2 2.8 2.9 4.1 2.8 8.2 5.5 12.4 8.2 4.2 2.7 8.4 5.3 12.6 7.8C-32.5 230.7-31.2 231.2-29.8 231.1z" style="fill:#D4EDED;opacity:0.1"/><path d="M-33.6 242.6c5.8-2.3 11.7-3.9 17.8-4.9 -0.4 0.1-0.7 0.1-1.1 0.2 5.5-1 11-1.7 16.6-1.9 5-0.2 10 0 14.9 0.5 10.7 0.8 21.1 4.4 31 8.3 8.4 3.3 16.3 7.9 24.2 12.2 5.7 3.1 11.3 6.1 17.2 8.9 2.5 1.1 5 2 7.6 2.7 2.5 0.7 5.1 1 7.7 0.8 2.9-0.2 5.7-0.9 8.3-2.1 1.4-0.9 2.9-1.7 4.3-2.6 3.3-2.3 6.6-4.5 10-6.6 9-5.6 18.3-10.7 27.7-15.4 9.3-4.7 19-8 29.1-10.6 -0.4 0.1-0.7 0.2-1.1 0.2 5.7-1.2 11.3-2.1 17.1-2.6 3.6-0.3 7.3-0.2 10.9 0.2 3.3 0.4 6.6 1.2 9.7 2.5 -0.9-0.4-1.8-0.8-2.8-1.1 2.3 1.1 4.7 2.1 7 3.2 -7.6-4.7-15.2-9.3-22.7-14 9.9 6.7 19.8 13.3 29.7 20 -0.8-0.6-1.7-1.1-2.5-1.7 2 1.6 4 3.2 6 4.8 1.6 0.8 3.2 1.5 4.7 2.3 2.2 0.8 4.4 1.5 6.7 2.1 6.8 2 14.2 2.4 21.2 3 8.2 0.7 16.5 0.6 24.8 0.6 28.5 0.2 57.3-1.9 85.6 2.8 -0.4-0.1-0.7-0.1-1.1-0.2 2.2 0.5 4.4 1 6.6 1.5 -0.4-0.1-0.7-0.2-1.1-0.2 3.1 0.7 5.9 1.9 8.6 3.5 -0.8-0.6-1.6-1.2-2.5-1.9 2.7 2.1 5.3 4.2 8 6.4 1.5 0.6 2.9 1.1 4.4 1.6 2.8 0.5 5.6 0.5 8.5 0 5-0.4 9.9-2.4 14.6-4 6.9-2.4 13.6-5.3 20.4-8 8.7-3.4 17.6-5.3 26.7-6.4 -0.4 0-0.7 0-1.1 0.1 2.3-0.1 4.5-0.2 6.8-0.3 -0.4 0-0.7 0-1.1 0 2 0 3.9 0.1 5.9 0.1 4.1 0.3 8.1 0.8 12.1 1.6 7 1.2 13.8 3.4 20.6 5.6 5.6 1.8 10.9 4.6 16.6 5.8 2.7 0.6 5.4 1.2 8.1 1.7 5.5 0.9 11 1.2 16.6 1.1 8.3 0.2 16.7-1.5 24.8-3 8.1-1.4 16-3.8 23.9-6 7.6-2.1 15.2-4.3 22.9-6.4 9.6-2.6 19.3-4.3 29.3-5.3 -0.4 0-0.7 0-1.1 0.1 2.8-0.1 5.5-0.2 8.3-0.4 -0.4 0-0.7 0-1.1 0 4.8-0.1 9.6 0.2 14.3 0.9 4.9 0.7 9.7 1.8 14.4 3.3 5 1.6 9.9 3.6 14.6 5.9 7.3 3.1 14.7 6.1 22.1 8.9 11.1 4.3 22.4 7.9 33.8 11.4 7 2.1 14.1 3.9 21.2 5.5 10.1 2.4 20.3 3.7 30.5 4.9 6.5 0.6 12.9 0.8 19.4 0.5 6.3-0.2 12.5-0.9 18.6-2.1 6.1-1.2 12-2.9 17.7-5.2 2.8-1.3 5.6-2.6 8.4-3.9 8.1-4 16.3-7.7 24.6-11.1 13.9-5.9 28.5-10.1 43.1-13.9 14.3-3.8 29-5.8 43.8-7.2 -0.4 0-0.7 0.1-1.1 0.1 13.5-0.7 27.1-1 40.1 3.1 -9.9-6.9-19.9-13.7-29.8-20.6 11.1 11.2 22.2 22.3 33.3 33.4 1 1 1.3 0.9 0.9-0.5 -0.4-1-0.8-1.9-1.1-2.9 -2.3-4.6-4.7-9.1-7.1-13.6 -3-5.4-5.9-10.8-9.3-15.9 5.9 11.2 11.8 22.4 17.7 33.6 2-1.3 3.3-3.2 3.9-5.5 -0.2-1.4-0.9-2.6-2-3.6 -3.2-3.9-6.5-7.8-9.9-11.6 -3.3-3.8-6.8-7.6-10.3-11.3 -0.9-1.2-2-2-3.3-2.4 -1.9 0.3-3.8 0.2-5.6-0.3 -2.5-0.2-5-0.3-7.5-0.5 -7.3-0.4-14.7 0.6-21.9 0.9 -9.7 0.5-19.4 2-29 3.5 -15.6 2.4-30.9 6.2-46.1 10.2 -14.9 3.9-29.6 8.7-44.1 13.7 -6.3 3.1-12.9 5.1-19.8 6 -5.2 0.8-10.4 1.2-15.6 1.3 -11.6 0.6-23.4-1.2-34.8-2.8 -17.1-2.4-34-6.9-50.7-11.3 -15.3-4-30.6-8.4-45.9-12.6 -6.3-1.7-14.2-3.9-20.8-4.7 -2.7-0.4-5.5-0.7-8.3-1 -5.3-0.5-10.6-0.7-15.8-0.5 -12.5 0-25.1 2.4-37.3 4.7 -9.8 1.8-19.5 4-29.3 5.8 -12.3 2.3-24.6 3.5-37.1 3.9 -10.4 0.3-20.7-1.1-30.9-2.7 -5.6-1-11.3-2-16.9-3.1 -8.1-1.6-16.1-2.4-24.3-3 -4.6-0.2-9.2-0.3-13.8-0.3 -4.1-0.1-8.2 0.3-12.3 1 -7.6 1-15 3-22.4 4.8 -6.4 1.5-12.8 3.1-19.4 3.9 -6.5 0.7-12.7 0-19-1.6 -2.3-0.4-4.6-0.9-6.8-1.7 -2.5-0.4-4.9-1-7.3-1.8 -6.7-2-13.9-2.2-20.8-2.6 -4.3-0.5-8.7-0.8-13-1.1 -4.9-0.3-9.7-0.6-14.6-0.7 -13.5-0.6-27-0.8-40.5-1.2 -10.9-0.3-21.7-1-32.6-2 -9.3-0.8-18.2-2.8-27.1-5.5 -3.6-1.2-7.3-2-11-2.7 -1.6-0.6-3.3-1-4.9-1.4 -4.7-0.9-9.2-1.5-13.9-1.7 -6.2-0.2-12.1 0.9-18.1 2.1 -3.9 1-7.9 2-11.8 3 -5.8 1.4-11.6 3.2-17.3 4.7 -7.9 2.1-15.4 5.5-22.9 8.8 -3.7 1.7-7.4 3.3-11.1 4.7 -1.8 0.7-3.5 1.4-5.3 2.1 -3.1 0.8-6.3 1.4-9.5 2 0.4 0 0.7 0 1.1 0 -1.5 0-3.1 0-4.6 0 0.4 0 0.7 0.1 1.1 0.1 -3.3-0.3-6.3-0.4-9.5-1.2 0.4 0.1 0.7 0.3 1.1 0.4 -4.5-1.7-9.1-3.4-13.7-5 -5.7-2-11.4-4.1-17.2-5.8 -12.8-3.9-25.9-6.7-39.2-8.3 -9.3-1.2-18.7-1-28.1-0.5 -5.7 0.3-11.2 1.3-16.8 2.1 -5.7 1.1-11.3 2.2-16.9 3.6 -5.9 1-11.6 2.4-17.2 4.3 0.8 1.1 2 1.8 3.4 2 4.5 1.7 9.1 3.3 13.7 4.8 4.6 1.5 9.2 3 13.8 4.3C-36.2 242.8-34.9 242.9-33.6 242.6z" style="fill:#D4EDED;opacity:0.1"/><path d="M-29.2 256.6c2.9-1 5.9-2 8.8-3 5.8-1.5 11.6-2.6 17.5-3.4 -1 0.1-1.9 0.2-2.9 0.3 3.7-0.3 7.3-0.6 11-0.9 -1 0.1-2 0.1-2.9 0.2 19.2-0.9 37.8 3.3 55.8 12.6 4.1 2 8.2 4.1 12.3 6.3 -1-0.5-1.9-1-2.9-1.5 8.9 4.9 17.6 10.1 27.1 13.9 2.9 1.1 5.8 1.7 8.9 2.2 2.8 0.3 5.5 0.1 8.2-0.6 3.2-0.8 6.1-2.3 8.7-4.4 1.6-1.2 3.2-2.4 4.8-3.6 3.4-2.3 6.8-4.4 10.3-6.5 3.7-2 7.4-4 11-6.1 3.5-1.8 7-3.5 10.5-5.2 12.9-6.4 26.6-10.5 40.7-12.8 -1 0.1-1.9 0.2-2.9 0.3 2.8-0.3 5.7-0.5 8.5-0.8 -1 0.1-2 0.1-3 0.2 2.8-0.1 5.6-0.2 8.4-0.3 -1 0-2 0-3 0.1 1.8 0.1 3.5 0.2 5.3 0.3 -5-0.6-9.9-1.3-14.9-1.9 6.6 0.9 13.2 1.8 19.8 2.7 -9.9-1.9-19.9-3.9-29.8-5.8 12.9 3.1 25.8 6.1 38.6 9.2 -9.9-3.2-19.8-6.4-29.7-9.6 11.1 4.1 22.3 8.1 33.4 12.2 -9.8-4-19.6-7.9-29.4-11.9 14.3 7.4 28.8 14.5 43.4 21.3 1.9 0.5 3.7 1.1 5.6 1.6 2.6 0.6 5.2 1.1 7.8 1.5 16.1 2 32.1 2 48.3 2 16.2-0.1 32.4-0.3 48.7 0.1 7.1 0.2 14.1 0.9 21.1 1.7 5.6 0.6 10.9 2.1 16.2 3.9 -1-0.4-2-0.9-3-1.3 2.2 1.1 4.5 2.2 6.7 3.3 -8.4-5.1-16.9-10.2-25.3-15.3 8.4 5.4 16.8 10.8 25.1 16.2 -4.6-3.1-9.2-6.3-13.7-9.4 5.5 3.8 10.9 7.6 16.4 11.4 1.9 1.4 3.9 2.4 6.2 2.9 4.7 1.6 10.1 0.1 14.7-0.9 5.2-1.1 10.2-3.4 15.1-5.3 6.8-2.7 13.6-5.5 20.5-7.9 -0.4 0.1-0.7 0.2-1.1 0.3 5.3-1.6 10.5-2.8 16-3.8 7.6-1.4 15.3-0.9 23-0.2 -1-0.1-2.1-0.3-3.1-0.4 3.1 0.5 6.2 1 9.3 1.4 -1-0.2-2.1-0.4-3.1-0.5 3.2 0.7 6.4 1.3 9.6 2 -1-0.2-2.1-0.4-3.1-0.7 3.3 0.9 6.6 1.7 9.9 2.6 -1-0.3-2.1-0.5-3.1-0.8 3.4 1.1 6.8 2.1 10.2 3.2 -1-0.3-2-0.7-3.1-1 3.5 1.3 7.1 2.6 10.6 3.9 5.2 2.1 10.5 3.5 16 4.3 3.2 0.4 6.3 0.7 9.5 1 5.6 0.3 11.2 0.1 16.7-0.4 8.3-0.5 16.6-2.6 24.7-4.4 10.5-2.4 20.8-5.7 31.1-8.7 -0.4 0.1-0.7 0.2-1.1 0.3 9.8-2.6 19.5-4.9 29.6-6.5 4.8-0.7 9.6-1 14.4-1.1 4.8 0 9.5 0.3 14.3 1 -1-0.2-2.1-0.3-3.1-0.5 3.4 0.6 6.8 1.2 10.2 1.9 -1-0.2-2.1-0.4-3.1-0.6 7.5 1.6 14.7 4.1 21.6 7.4 11.9 5 23.8 9.6 35.9 14 17.7 6.5 36 11.1 54.4 14.8 9.9 2 20 2.7 30.1 3.2 9.6 0.5 19-0.8 28.4-2.3 3-0.8 6-1.5 9-2.3 6-1.8 11.7-4.1 17.1-7.1 11.8-5.7 23.7-10.6 36-15.3 -0.3 0.1-0.7 0.3-1 0.4 32.7-11 67.1-19.6 101.8-16.6 -1-0.1-2.1-0.3-3.1-0.4 2.8 0.4 5.6 0.8 8.3 1.2 -1-0.2-2.1-0.3-3.1-0.5 2.6 0.5 5.2 1.1 7.8 1.6 -12-3.9-24-7.9-36-11.8 14 8.9 28.1 17.7 42.1 26.6 1.2 0.9 1.5 0.7 0.8-0.7 -0.6-0.9-1.2-1.9-1.8-2.8 -3.3-4.4-6.8-8.7-10.3-12.9 -2.1-2.5-4.1-5-6.2-7.5 -2.1-2.7-4.3-5.2-6.8-7.5 -13.6-6.6-5.1 4.1 25.4 31.8 2.4-1.2 3.9-3.1 4.7-5.6 -0.6-1.4-1.6-2.5-3-3.3 -4.3-3.4-8.6-6.7-13-9.9 -4.4-3.3-8.8-6.5-13.3-9.6 -1.2-1.1-2.5-1.7-4-1.9 -4.1 2.9-8.8 3.7-14.2 2.2 -3.4 0.2-6.9 0.5-10.3 0.9 -4 0.3-8 0.7-12 1.2 -7.3 0.8-14.5 2.1-21.7 3.4 -35.7 6.2-70.2 17.7-105.1 27 0.4-0.1 0.8-0.2 1.1-0.2 -5.5 0.7-11 1.1-16.5 1.1 -6.1 0-12.1-0.3-18.1-0.9 0.4 0 0.8 0.1 1.2 0.1 -3.3-0.4-6.6-0.7-10-1.1 0.4 0.1 0.8 0.1 1.2 0.2 -3.4-0.5-6.8-1-10.2-1.5 0.4 0.1 0.8 0.1 1.2 0.2 -17-2.9-33.8-6.6-50.6-10.5 0.4 0.1 0.8 0.2 1.2 0.3 -22.8-5.5-45.5-11.2-68.5-15.7 -7.6-1.5-15.5-1.6-23.3-1.7 -9.7-0.2-19.3 1.3-28.9 2.7 -7.3 1.1-14.6 2.6-21.8 3.9 -7.5 1.4-15.1 2.6-22.6 3.8 -7.7 1.1-15.5 1.6-23.2 2 -10.5 0.6-20.9-0.3-31.3-1.2 -8.1-0.7-16.3-2-24.4-3 -8.1-1.1-16.1-2.1-24.2-2.6 -6.7-0.4-13.4 0-20.1 0.3 -7.7 0.4-15.2 2-22.8 3.4 -1.8 0.4-3.6 0.8-5.3 1.2 -3.6 0.6-7.1 1.3-10.6 2 -1.7 0.2-3.5 0.3-5.2 0.5 -3.3 0.6-6.7 0.7-10 0.3 -4.7-0.2-9-1-13.5-2 -2.6-0.5-5.2-1.2-7.8-2.1 -1.7-0.3-3.4-0.6-5-0.9 0.4 0.1 0.8 0.2 1.2 0.3 -1.6-0.4-3.3-0.8-4.9-1.2 -2.4-0.1-4.9-0.4-7.2-0.9 -2.8-0.5-5.3-0.6-8.2-0.8 0.4 0 0.8 0.1 1.2 0.1 -3.9-0.3-7.3-0.5-11.2-0.6 -2.1-0.2-4.1-0.3-6.2-0.5 -4.6-0.3-9.2-0.6-13.8-0.8 -16.1-0.8-32.1-1.3-48.2-2.2 -16-0.9-31.9-2.5-47.7-5.3 -4.8-0.8-9.5-2.3-14.3-3.1 -4.2-0.6-6.7-0.9-11-1.1 0.4 0 0.8 0.1 1.2 0.1 -16.3-2.3-14 0.6-42.7 4.7 -1.8 0.5-3.7 1.1-5.5 1.6 -3.8 1.2-7.5 2.3-11.3 3.5 -5.9 1.8-11.5 4-17.3 6.3 -3.9 1.5-7.9 2.9-11.8 4.4 -3.9 1.1-7.9 2.1-11.8 3.2 1 0 2 0 2.9-0.1 -4.6 0.1-9.3 0.1-13.9 0.1 1 0.2 2 0.3 3 0.5 -2.5-0.5-4.9-1-7.4-1.5 1 0.3 2 0.6 3 0.8 -3.3-1.1-6.7-2-10.1-2.6 -1-0.4-2-0.7-3-1.1 -2.4-1.4-4.9-2.4-7.6-3 0.4 0.1 0.8 0.3 1.2 0.4 -14.7-5.6-30.4-8.1-45.9-10.3 -11.9-1.7-24-1.6-36-0.9 -7.2 0.4-14.2 1.8-21.2 3.1 -5.4 1.1-10.8 2.4-16.1 3.8 -5.8 1.2-11.5 2.9-17 4.9 -1.3 0.3-1.3 0.7 0 1 2.8 0.5 5.7 0.8 8.6 0.7 5.5 0.2 11.1 0.3 16.6 0.3C-34.9 257.1-32.1 257-29.2 256.6z" style="fill:#D4EDED;opacity:0.1"/><path d="M-24.2 231.5c5.6-2.4 11.5-4.1 17.6-5 5.5-1 11-1.6 16.5-1.8 9.5-0.7 19.1 1.1 28.4 3.1 -0.3-0.1-0.7-0.2-1-0.3 2.4 0.7 4.8 1.4 7.2 2.1 -0.3-0.1-0.7-0.2-1-0.3 2.3 0.8 4.6 1.6 6.9 2.4 -0.3-0.1-0.7-0.2-1-0.4 2.2 0.9 4.4 1.8 6.6 2.6 -0.3-0.1-0.6-0.3-1-0.4 2.1 0.9 4.2 1.9 6.2 2.8 -0.3-0.1-0.6-0.3-0.9-0.4 2 1 4 2 6 3 -0.3-0.2-0.6-0.3-0.9-0.5 6.4 3.4 12.8 6.9 19.2 10.5 5.1 2.9 10.2 5.6 15.7 7.8 2.4 1 5 1.6 7.5 2 2.7 0.5 5.3 0.3 7.9-0.4 3.2-0.7 6.1-2 8.8-3.7 3.4-2.3 6.7-4.6 10.1-6.9 7-4.8 14.4-9 21.8-13.1 7.4-4.1 15.2-7.2 23.1-10.2 7.3-2.8 15.2-4.1 22.9-5.3 3.7-0.4 7.4-0.6 11.2-0.6 3.5 0 7 0.5 10.4 1.3 -0.3-0.1-0.7-0.2-1-0.3 1.6 0.5 3.2 1 4.7 1.5 3 1.2 5.7 2.8 8.2 4.8 2.1 2.3 4.4 4.4 6.8 6.3 1.9 1.1 3.8 2.1 5.7 3 1.9 0.6 3.8 1.3 5.6 1.9 4.4 1.2 8.9 2 13.4 2.4 5.2 0.5 10.4 0.8 15.6 1 5.6 0.2 11.2 0.2 16.8 0.2 19.5 0.1 38.9-0.5 58.4 0 7.1 0.2 14.1 0.9 21.1 1.7 3.9 0.5 7.8 1.3 11.6 2.3 3.1 0.7 6 1.9 8.7 3.5 -0.3-0.2-0.6-0.3-0.9-0.5 1 0.8 1.9 1.5 2.9 2.3 1.1 1 2.3 1.9 3.5 2.7 1.1 0.4 2.3 0.9 3.4 1.3 2.8 0.6 5.6 0.7 8.5 0.3 1.6-0.3 3.1-0.6 4.7-0.9 3.4-0.8 6.7-1.8 9.9-3.1 5.2-1.8 10.2-4.1 15.3-6.3 5.1-2.1 10.3-3.9 15.6-5.6 5.3-1.7 10.7-2.4 16.2-3.1 12.5-1.6 25.1 1.6 36.9 4.9 2.4 0.8 4.8 1.6 7.2 2.4 5.1 2.1 10.3 4 15.6 5.7 7.9 2.7 16.5 2.8 24.7 2.9 8.3 0.2 16.7-1.5 24.8-3 8.1-1.5 16-3.9 23.9-6.1 7.6-2.1 15.2-4.4 22.8-6.5 7.3-2 14.6-3.4 22-4.6 7.2-1.2 14.3-1.1 21.5-0.9 10 0.3 19.6 3.4 28.8 6.8 -0.3-0.1-0.6-0.3-1-0.4 13.7 6.2 27.5 11.7 41.5 16.9 17.3 6.4 35.1 11 53.2 14.7 6.7 1.2 13.4 2.2 20.2 2.8 6.5 0.6 12.9 0.8 19.4 0.5 6.3-0.2 12.5-0.9 18.6-2.1 3-0.7 6-1.5 9-2.2 6-1.8 11.7-4.1 17.2-7.1 8.1-4.1 16.3-7.8 24.7-11.2 7.4-3 14.8-5.7 22.4-8.1 15.6-5.3 31.9-8.6 48.2-11.3 10-1.6 20.1-2.1 30.3-2.2 8.8-0.1 17.7 1 26 3.8 -0.3-0.1-0.6-0.3-1-0.4 2.1 0.7 4 1.8 5.6 3.4 -0.6-0.7-1.2-1.4-1.8-2 1.1 1.4 2.2 2.7 3.3 4.1 -4.9-8.4-9.9-16.7-14.8-25.1 4.4 9.1 8.7 18.3 13.1 27.4 0.3 1.3 0.9 2.2 1.9 2.9 1.3-0.4-2-9.5-1.7-8.4 -2-6.3-4-12.7-6.5-18.7 -0.4-0.7-0.8-1.5-1.1-2.2 2.2 10.6 4.5 21.2 6.7 31.7 1.2-1.6 2.4-3.2 3.6-4.9 0.3-1.2 0.1-2.3-0.6-3.5 -1.6-4-3.3-7.9-5.2-11.7 -1.8-3.9-3.6-7.7-5.6-11.5 -0.4-1.2-1.1-2.1-2.2-2.7 -1.1-0.6-2.2-1.3-3.4-1.9 -1.1-0.5-2.2-0.9-3.4-1.4 -2.8-1-5.6-1.7-8.6-2.1 -3.7-0.7-7.4-1-11.1-0.9 -6.6-0.2-13.2-0.1-19.8 0.1 -13.7 0.4-27.4 2.6-40.8 5.1 -16.8 3-33.2 7.9-49.4 13.2 -7.4 2.5-14.7 5.4-21.8 8.6 -4 1.9-7.9 3.8-11.9 5.6 -4.4 2-8.9 3.6-13.6 4.6 -5 1.2-10.1 1.9-15.3 2.2 -8.6 0.9-17.4-0.1-26-0.9 -6.4-0.8-12.8-1.8-19.2-3.1 -10.5-1.9-20.9-4.9-31.2-7.7 -19.9-5.5-39.4-12.6-59.1-18.9 -5.9-2-11.9-3.5-18-4.6 -8.3-1.8-16.8-1.9-25.2-2 -12.7-0.1-25.4 2.5-37.7 5.1 -11.7 2.5-23.3 5.8-34.9 8.5 -4.6 1-9.3 1.9-14 2.6 -7.2 1.2-14.4 1.4-21.7 1.4 -14.2 0.1-28.1-4.6-41.7-8.1 -12.2-3.2-25.1-4.2-37.7-4.8 -4.3 0.2-8.6 0.6-12.8 1.3 -5.6 0.7-11.2 2.3-16.7 3.9 -8.5 2.4-16.6 5.9-25 8.4 -2 0.6-4.1 1-6.2 1.2 -3.1 0.5-6.2-0.3-9.2-1 -2.6-0.7-5.1-1.7-7.4-3.1 -5-2.5-10.2-3.5-15.6-4.4 -4.3-0.5-8.7-1-13-1.6 -7.1-0.9-14.3-1.2-21.4-1.5 -13.4-0.6-26.8-0.5-40.2-0.5 -13.3 0-26.5-0.2-39.7-1.2 -4.5-0.4-9-1.1-13.4-2.1 -1.9-0.6-3.7-1.2-5.6-1.7 -3.7-1.4-7.4-2.8-11.2-4.1 -3.2-1.6-6.5-3.1-9.9-4.5 -4.1-1.8-8.7-2.4-13.1-3.3 -4.3-0.4-8.6-0.5-12.9-0.3 -2.3 0.3-4.5 0.6-6.8 0.9 -4.4 0.8-8.7 1.7-13.1 2.5 -4 0.9-8.1 1.8-12.1 2.8 -1.9 0.4-3.7 0.9-5.6 1.3 -3.8 0.8-7.5 2.1-11.1 3.8 -9.1 3.7-17.7 8.5-26.2 13.3 -2.5 1.5-5.1 3-7.7 4.4 -2.3 1.3-4.4 2.9-6.7 4.2 -1.5 0.5-3.1 0.7-4.7 0.5 -0.9-0.2-1.9-0.4-2.8-0.6 -2.2-0.6-4.4-1.4-6.5-2.2 -2.6-1.1-5.3-2.2-7.9-3.4 -4.8-2.1-9.6-4.2-14.4-6.2 -4-1.5-8-2.9-12-4.2 -6.3-2.2-12.4-4.3-18.8-6 -12.3-3.4-25-4.4-37.8-4.6 -8.7-0.2-17.4 1.2-25.9 2.5 -3 0.5-5.9 1-8.9 1.6 -5.7 0.6-11.3 1.9-16.7 4 0.5 1.3 1.3 2.3 2.6 3 3.8 3 7.7 5.9 11.6 8.7 3.9 2.9 7.9 5.7 11.9 8.4C-26.8 231-25.6 231.5-24.2 231.5z" style="fill:#D4EDED;opacity:0.1"/><path d="M-30.7 225c3.1-0.9 6.3-1.7 9.4-2.6 5.6-1.5 11.3-2.5 17.1-3.2 7.7-1.1 15.4-0.5 23.1 0.1 -0.3 0-0.6-0.1-0.9-0.1 2.6 0.4 5.2 0.8 7.8 1.2 -0.3 0-0.6-0.1-0.9-0.1 4.3 0.8 8.6 1.9 12.8 3.3 3.9 1.3 7.7 2.8 11.5 4.4 8.4 3.5 16.3 8.3 24.2 12.8 5.5 3.1 11 6.3 16.7 9.1 2.4 1.1 4.9 2 7.5 2.8 1.3 0.2 2.5 0.5 3.8 0.7 2.7 0.5 5.3 0.3 7.9-0.4 3.1-0.8 6-2 8.7-3.7 3.4-2.3 6.8-4.6 10.2-6.9 9-6.1 18.3-11.7 27.9-16.7 9.2-4.7 18.8-8.2 28.8-10.7 3.8-0.9 7.6-1.6 11.5-2.1 5.5-0.8 11.2-0.6 16.7-0.2 -0.3 0-0.6-0.1-0.9-0.1 3.4 0.5 6.6 1.3 9.8 2.6 3 1.3 5.7 3 8.2 5 -0.5-0.5-1.1-1-1.6-1.5 1.6 1.6 3.3 3.3 4.9 4.9 2.2 2.6 4.9 4.5 8.1 5.7 3.8 2.1 8.5 2.8 12.6 3.8 2.4 0.3 4.7 0.7 7.1 1 5.2 0.5 10.4 0.8 15.7 0.9 8.4 0.4 16.9 0.1 25.4 0.1 16.6-0.1 33.2-0.5 49.9 0 7.1 0.2 14.1 0.8 21.1 1.7 5.7 0.7 11.1 2.1 16.5 3.8 -0.3-0.1-0.6-0.2-0.8-0.3 2.5 1 4.8 2.4 6.7 4.3 3 2.5 3 2.4 6.7 3.9 1.3 0.2 2.6 0.3 3.9 0.5 3.1 0.1 6.1-0.2 9-1 5.2-1 10.1-3.2 15-5.1 5.2-2.1 10.4-4.4 15.6-6.6 5.2-2.1 10.5-3.7 15.8-5.2 5.4-1.5 11.1-1.8 16.6-2 6.1-0.3 12 0.8 17.9 1.9 -0.3-0.1-0.6-0.1-0.9-0.2 2.5 0.6 5 1.1 7.4 1.7 -0.3-0.1-0.6-0.1-0.9-0.2 7.4 2.1 14.6 4.6 21.8 7.4 2.9 1 5.8 2.1 8.7 3.1 5.3 1.5 10.7 2.5 16.3 2.8 8.2 1 16.7-0.3 24.9-1.4 8.2-1 16.3-3.4 24.3-5.5 7.8-2.1 15.5-4.5 23.2-6.8 7.4-2.2 14.8-3.9 22.3-5.6 7.2-1.5 14.4-2 21.7-2.3 7.3-0.3 14.4 1 21.5 2.4 -0.3-0.1-0.6-0.1-0.9-0.2 5 1.2 9.8 2.8 14.5 4.7 6.1 2.9 12.3 5.6 18.5 8.2 17.9 7.7 36.3 13.7 55 19 13.4 3.8 27.2 5.9 41 7.5 6.5 0.6 13 0.7 19.4 0.5 9.4-0.1 18.6-2.2 27.7-4.4 6-1.8 11.7-4.2 17.2-7.1 8.1-4.2 16.4-8 24.9-11.5 16.8-7.4 34.7-12.2 52.6-16.4 11.2-2.6 22.6-3.9 34.1-4.9 10.6-0.9 21.1-0.3 31.6 1.2 -0.3-0.1-0.6-0.1-0.9-0.2 1.9 0.4 3.8 0.8 5.6 1.2 -0.3-0.1-0.6-0.1-0.9-0.2 1.3 0.4 2.6 0.9 3.9 1.3 2.1 0.7 4 1.9 5.7 3.5 -0.5-0.5-1-1.1-1.5-1.6 0.6 0.7 1.1 1.4 1.7 2.1 -3.7-6.2-7.4-12.3-11.1-18.5 3.6 7.7 7.3 15.4 10.9 23.1 0.3 1.1 0.9 1.8 1.8 2.3 1.2-0.5-1.6-7.7-1.4-6.9 -1.7-5.1-3.4-10.5-5.8-15.3 1.6 8.3 3.1 16.6 4.7 24.8 1.9-1.3 3-3 3.4-5.2 0.7-1.9-1.6-5.6-2.2-6.8 -1.7-3.7-3.6-7.4-5.4-11.1 -0.9-2-2-3.8-3.3-5.5 -1.7-1.5-3.5-2.6-5.5-3.5 -2.7-1.4-5.8-2.1-8.7-2.8 -5.5-1.4-11.2-1.4-16.8-1.7 -6.8-0.3-13.4-0.2-20.2 0.1 -14.3 0.6-28.5 3.2-42.5 6.1 -10.1 2.1-20 5.1-29.9 8.1 -11.3 3.4-22.1 8.1-32.9 12.8 -6.3 3.5-12.9 6.6-19.6 9.4 -7.4 3.2-15.8 4-23.6 4.9 -8.9 1-18 0-26.8-0.7 -10-0.8-19.8-3.1-29.6-5.2 -18.6-4-36.7-10.3-54.6-16.5 -8-2.8-15.8-5.9-23.8-8.7 -7.4-2.6-9.3-3.2-17-5.2 -5.4-1.2-10.8-2-16.3-2.5 -7.7-0.9-15.6-0.1-23.4 0.5 -7.5 0.6-14.9 2.4-22.2 4.1 -7.3 1.6-14.4 3.8-21.6 5.8 -4.8 1.4-9.6 2.6-14.4 3.8 -7.3 1.9-14.6 3.1-22.1 4.2 -7.6 1.1-15.2 0.7-22.8 0.3 -8.3-0.5-16.5-3.3-24.4-5.7 -5.5-1.8-11.1-3.4-16.8-4.7 -7.2-1.8-14.6-2.6-21.9-3.5 -12-1.5-24.2 1-35.6 4.5 -9.4 2.9-18.2 7.4-27.5 10.4 -3.5 1.1-6.8 1.5-10.4 1.6 -3.3 0.1-6.6-1.5-9.6-2.6 0.3 0.1 0.5 0.3 0.8 0.4 -2.4-1.5-4.9-2.8-7.5-3.9 -3.7-1.8-7.4-2.3-11.4-3.1 -6.4-1.2-13-1.8-19.4-2.4 -7.4-0.7-14.9-0.8-22.4-1 -16.5-0.4-33 0-49.5-0.1 -8 0-15.9-0.4-23.9-0.8 -2.4-0.3-4.8-0.5-7.2-0.8 -4.2-0.5-8.2-1.6-12.1-3.1 0.3 0.1 0.5 0.2 0.8 0.3 -1.9-0.8-3.8-1.7-5.7-2.5 0.3 0.1 0.5 0.2 0.8 0.4 -1.7-0.8-3.5-1.7-5.2-2.5 -3.1-2-6.3-3.8-9.6-5.6 -3.6-1.6-7.3-2.9-11.1-3.8 -2.3-0.5-4.6-0.8-6.9-1 -6.6-0.9-13 0.2-19.5 1.1 -8.1 1.1-16 3-23.9 4.9 -5.9 1.4-11.3 4-16.9 6.4 -3.7 1.9-7.4 3.9-11.1 5.9 -3.5 2.2-7.1 4.4-10.6 6.7 -4.2 2.7-8.2 5.4-12.4 8.1 -1.7 1.1-3.5 2.1-5.3 2.9 -1.8 0.5-3.7 0.7-5.6 0.6 -1-0.2-1.9-0.4-2.9-0.6 -2.2-0.6-4.4-1.4-6.6-2.3 -5.6-2.1-10.9-5-16.3-7.6 -10.6-5-21.4-9.5-32.5-13.3 -9.4-3.2-19.2-4.9-29-6.1 -20.1-2.6-40.3 2.1-59.9 5.8 0.3 1.1 0.9 2 2 2.7 3.1 2.6 6.3 5.2 9.5 7.6 3.2 2.5 6.5 4.9 9.8 7.2C-32.9 224.6-31.9 225-30.7 225z" style="fill:#D4EDED;opacity:0.1"/><path d="M-30.7 220.7c6.3-1 12.5-2.3 18.6-3.9 5.5-1 11-1.6 16.6-1.7 -0.3 0-0.5 0-0.8 0 5.1-0.1 10.1 0.2 15.1 0.9 4.6 0.6 9 1.6 13.5 2.8 9.8 2.4 18.9 7.2 27.7 11.9 7.4 4 14.5 8.6 21.8 13 5 3 10.2 5.2 15.7 7 2.5 0.6 5 0.9 7.6 0.9 1.4-0.3 2.8-0.5 4.1-0.8 3.1-0.9 6.1-2.2 8.8-4 3.5-2.4 7-4.8 10.5-7.2 5.5-3.8 11.1-7.5 16.9-11 9.2-5.7 18.8-10.1 28.8-14 9-3.5 18.9-4.9 28.5-5.7 -0.3 0-0.5 0-0.8 0 2.2 0 4.3 0 6.5 0 -0.3 0-0.5 0-0.8 0 3.6 0 7.1 0.6 10.5 1.7 5 1.2 8.9 4.1 12.8 7.2 -0.4-0.4-0.8-0.7-1.2-1.1 1.4 1.5 2.9 3.1 4.3 4.6 1.1 1.1 2.2 2.2 3.3 3.4 3 2.2 6.2 3.8 9.8 4.7 2.2 0.8 4.6 1.3 7 1.6 2.4 0.3 4.7 0.6 7.1 0.9 5.2 0.5 10.5 0.7 15.8 0.8 17 0.6 34.1-0.2 51.2-0.4 15.2-0.2 30.3 0.1 45.3 1.9 -0.2 0-0.5-0.1-0.7-0.1 2 0.3 4 0.7 6 1 3.6 0.7 7.1 1.7 10.5 2.9 3.6 1.2 6.3 4.4 9.1 6.8 1.9 1.7 5.5 1.8 7.8 2.1 4.6 0.6 9.6-1.3 13.9-2.6 1.7-0.7 3.4-1.3 5.2-2 3.5-1.4 7-2.9 10.5-4.5 5.3-2.4 10.5-4.6 15.9-6.7 5.2-2 10.6-3.2 16-4.3 5.7-1.1 11.3-0.9 17.1-0.7 -0.3 0-0.5 0-0.8-0.1 1.9 0.2 3.9 0.5 5.8 0.7 4.3 0.7 8.5 1.7 12.7 2.8 7.4 1.8 14.5 4.9 21.6 7.8 5 2.1 11.1 4.3 16.6 4.9 5.5 0.9 10.9 1.3 16.5 1.1 5.6-0.2 11.1-0.7 16.6-1.7 8.3-1.1 16.4-3.6 24.4-5.8 7.8-2.1 15.5-4.7 23.3-7 7.4-2.2 14.8-4 22.3-5.7 4.8-1 9.6-1.6 14.5-2 4.8-0.4 9.6-0.4 14.4 0 -0.3 0-0.5 0-0.8-0.1 4.9 0.4 9.6 1.2 14.3 2.4 5 1.3 9.8 2.9 14.4 5 6 3 12.1 5.8 18.3 8.5 10.6 4.8 21.6 8.6 32.6 12.5 10.6 3.7 21.6 6.5 32.5 9.2 6.8 1.5 13.6 2.8 20.5 3.7 9.8 1.6 19.7 1.6 29.6 1.5 6.3-0.3 12.6-1.1 18.8-2.4 6.1-1.3 12.1-3.2 17.9-5.6 7.2-3.5 14.4-7.1 21.5-10.7 11.1-5.5 22.8-9.6 34.4-13.7 12.8-4.5 26.1-7.4 39.4-10 12.9-2.5 26-3.3 39-3.3 -0.3 0-0.5 0-0.8 0 2.4 0.1 4.7 0.2 7.1 0.4 -0.3 0-0.5 0-0.8 0 5.4 0.6 10.6 1.3 15.9 2.5 1.3 0.5 2.6 1 3.9 1.5 2.1 0.8 4 2.1 5.6 3.7 -0.4-0.4-0.8-0.8-1.1-1.1 0.5 0.7 1.1 1.5 1.6 2.2 -2.5-4.6-4.9-9.1-7.4-13.7 2.1 4.5 4.2 9 6.3 13.4 -1.6-3.7-3.1-7.4-4.7-11.1 0.5 1.8 1.1 3.5 1.6 5.3 -0.3-1.5-0.6-3-0.8-4.5 0 1.3 0.1 2.6 0.1 3.8 0-0.5 0.1-1 0.1-1.5 -0.2 1.2-0.4 2.4-0.6 3.7 -0.6 3.8-1 7.5-1.2 11.3 0.1-1.2-0.5 5.5 0.6 4.9 3-0.8 5.3-2.5 7-5 1.1-1.8 1.5-3.8 1.1-6 -0.1-0.5-0.3-1-0.4-1.5 -1.1-2.4-2.2-4.7-3.5-7 -0.7-1.3-1.5-2.7-2.2-4 -0.7-1.5-1.6-2.8-2.7-3.9 -1.8-1.5-3.7-2.8-5.9-3.8 -2.8-1.1-5.6-2.1-8.5-2.8 -2.1-0.4-4.2-0.7-6.3-0.9 -3.8-0.4-7.6-0.8-11.5-1 -7.4-0.6-14.8-0.1-22.1 0.3 -15 0.8-29.8 4-44.3 7.4 -14.4 3.4-28.2 8.7-41.9 14.2 -8.4 3.6-16.5 7.6-24.4 12.1 -2.5 1.2-5 2.4-7.5 3.7 -5.2 2.2-10.6 3.8-16.1 4.8 -5.8 1.1-11.6 1.7-17.5 1.9 -6.2 0.2-12.4-0.1-18.6-0.7 -6.6-0.6-13.2-1.6-19.7-2.9 -10.6-1.8-20.9-4.8-31.2-7.7 0.2 0.1 0.5 0.1 0.7 0.2 -11.1-3.5-22.1-7.2-33.1-11.3 -7.7-3-15.4-6.1-23-9.4 -5.2-2.4-10.6-4.5-16.2-6.1 -4.8-1.6-11.5-2.9-16.6-3.3 -2.6-0.2-5.2-0.5-7.8-0.6 -5.1-0.2-10.2-0.1-15.2 0.4 -7.5 0.5-14.9 2.3-22.2 4 -9.9 2.3-19.6 5.6-29.2 8.5 -10 3-19.9 5.5-30.2 7.3 -5.2 0.8-10.4 1.2-15.6 1.3 -5.3 0-10.5-0.5-15.7-1.5 0.2 0.1 0.5 0.1 0.7 0.2 -2.6-0.7-5.3-1.3-7.9-2 -5.5-1.9-11-3.8-16.4-5.9 -7.3-2.7-15-4.3-22.6-5.8 -3.9-0.8-9.3-1.9-13.3-1.8 -2.1 0-4.2 0.1-6.4 0.1 -4 0-8 0.5-11.9 1.4 -10.9 1.9-21.1 6.8-31 11.5 -4.4 2.1-8.8 3.9-13.4 5.5 -2.4 0.7-4.9 1.1-7.4 1.3 -2.2 0-4.3-0.4-6.4-1.1 0.2 0.1 0.5 0.2 0.7 0.2 -1-0.5-2.1-1-3.1-1.5 -2.2-1.6-4.4-3-6.8-4.4 -3.3-2-7-2.8-10.7-3.5 -4.4-0.8-8-1.4-12.4-2.1 -7-1.1-14.2-1.3-21.3-1.6 -16.4-0.7-32.9-0.1-49.3 0.1 -8.3 0.1-16.6 0.1-24.9-0.1 -2.6-0.1-5.2-0.2-7.9-0.3 -4.8-0.2-9.5-0.8-14.2-1.7 0.2 0.1 0.5 0.1 0.7 0.2 -3.7-0.8-7.2-2.1-10.5-3.8 -3.2-1.7-6.2-3.8-9-6.3 -2.9-2.4-6-4.3-9.4-5.9 -3.4-1.8-7.1-3-10.9-3.6 -6.5-1.6-13.1-0.9-19.7-0.5 -8.1 0.6-16 2.6-23.9 4.5 -7.9 1.9-15.3 5.7-22.4 9.5 -7.6 4.1-14.6 9.2-21.5 14.4 -4.9 3.7-9.7 7.7-15.2 10.7 -2.1 0.8-4.2 1.3-6.5 1.4 -2.2-0.2-4.3-0.7-6.4-1.4 0.2 0.1 0.5 0.2 0.7 0.2 -6.7-2.5-12.9-5.8-19.2-9.2 -10.2-5.6-20.6-10.9-31.4-15.4 -6.4-2.7-13-4.5-19.7-6.2 -7.5-1.9-15.3-2.4-23-2.9 -6-0.4-11.9 0.4-17.9 0.9 -3 0.5-5.9 0.9-8.9 1.4 -6.3 1.8-12.6 2.5-19.2 2.1 0 1 0.5 1.8 1.3 2.4 2.3 2.3 4.7 4.5 7.1 6.6 2.4 2.2 4.9 4.3 7.4 6.2C-32.5 220.4-31.7 220.7-30.7 220.7z" style="fill:#D4EDED;opacity:0.1"/><path d="M-28.3 241.8c5.5-2.6 11.3-4.3 17.4-5.1 5.5-1 11-1.6 16.6-1.8C5.2 234.9 4.8 235 4.3 235c3 0 6 0 8.9 0 -0.4 0-0.8-0.1-1.3-0.1 4.8 0.2 9.5 0.7 14.2 1.5 4.3 0.8 8.5 1.8 12.7 3.1 9.3 2.6 18 7 26.5 11.4 6.3 3.3 12.4 6.7 18.6 10.1 2.6 1.4 5.2 2.7 7.8 3.9 3.7 1.7 7.5 2.6 11.5 3.4 2.7 0.4 5.4 0.2 8-0.5 3.2-0.8 6.1-2.1 8.8-4.1 3.3-2.4 6.6-4.7 10-6.8 5.2-3.4 10.6-6.5 16.1-9.5 7.3-4.2 15.1-7.6 22.9-10.8 9.3-3.8 19-6 28.9-7.5 -0.4 0-0.8 0.1-1.3 0.1 2.3-0.2 4.6-0.4 6.9-0.6 -0.4 0-0.8 0-1.3 0.1 2.3 0 4.5-0.1 6.8-0.1 -0.4 0-0.8 0-1.3 0 3.5 0 6.9 0.5 10.3 1.3 3.2 0.8 6.1 2 8.9 3.6 -5.7-3.9-11.4-7.9-17-11.8 8 5.9 16 11.8 24 17.8 -0.9-0.7-1.8-1.4-2.7-2.2 3.4 3.7 7.4 6.4 12.1 8 1.9 0.6 3.8 1.1 5.7 1.7 4.5 1.1 9 1.9 13.7 2.3 7.9 1 16 1 23.9 1.2 8.5 0.2 17.1 0 25.6 0 13.7-0.1 27.5-0.2 41.2 0.2 7.1 0.2 14.1 0.9 21.1 1.7 5.6 0.7 11 2.1 16.3 3.9 -0.4-0.2-0.8-0.3-1.2-0.5 2.5 0.9 4.7 2.3 6.6 4.3 2.8 2.4 3.6 2.7 7.2 3.9 1.4 0.1 2.7 0.3 4.1 0.4 3.1-0.1 6.2-0.5 9.3-1.3 5.1-1 10.1-3.3 15-5.2 3.4-1.4 6.8-2.8 10.2-4.1 5.1-2 10.2-3.8 15.5-5.4 5.3-1.6 10.7-2.3 16.2-2.9 5.8-0.7 11.6-0.1 17.4 0.5 -0.4-0.1-0.8-0.1-1.3-0.2 2.5 0.4 5 0.8 7.5 1.2 -0.4-0.1-0.8-0.1-1.2-0.2 7 1.5 13.8 3.4 20.6 5.6 2.5 1 5.1 1.9 7.6 2.9 3 1.1 6.1 2.1 9.1 3.1 2.7 0.6 5.4 1.2 8.2 1.7 5.5 0.8 11 1.2 16.6 1 8.3 0.1 16.7-1.6 24.8-3 8.1-1.5 16-3.8 23.9-6 7.6-2.1 15.2-4.3 22.8-6.4 7.3-2 14.6-3.3 22-4.5 4.8-0.7 9.6-1 14.4-1.1 4.8 0 9.6 0.3 14.3 1 -0.4-0.1-0.8-0.1-1.3-0.2 2.8 0.5 5.6 1.1 8.4 1.6 -0.4-0.1-0.8-0.2-1.2-0.2 4.9 1.1 9.8 2.6 14.5 4.5 6.5 2.9 13.1 5.7 19.7 8.3 14.3 5.9 29 10.8 43.7 15.4 13.7 4.2 27.7 7 41.7 9.3 6.6 0.9 13.2 1.5 19.8 1.7 9.5 0.5 18.9-0.7 28.3-2.2 6.1-1.2 12-3 17.7-5.3 7-3.3 14-6.6 21-9.9 17.6-8.3 36.3-14 55-19 11.8-3.1 23.9-4.9 35.9-6.4 11.3-1.4 22.7-1.4 34.1-0.4 -0.4-0.1-0.8-0.1-1.3-0.2 2.2 0.3 4.4 0.6 6.5 0.9 -0.4-0.1-0.8-0.1-1.3-0.2 1.6 0.3 3.1 0.7 4.7 1 2.5 0.6 4.9 1.6 7.1 2.8 -5.4-4.4-10.8-8.8-16.2-13.2 6.7 5.7 13.3 11.5 20 17.2 -9.5-10.2-18.9-20.5-28.4-30.7 5.1 15.8 13.6 28.7 25.5 38.6 0.1-1.6-0.2-3.1-1.1-4.5 -2.2-5.2-4.5-10.4-6.9-15.6 -1.4-3-2.8-6.1-4.2-9.1 4.1 9.7 8.1 19.4 12.2 29.1 1.4-1.7 2.7-3.5 4.1-5.2 -0.2-1.6-0.9-3-2.1-4.2 -3.3-4.7-6.8-9.3-10.3-13.8 -3.5-4.6-7-9.1-10.6-13.5 -0.9-1.4-2-2.5-3.5-3.1 -2.3 0.1-4.5-0.1-6.8-0.5 -4.3-0.5-8.9-0.3-13.3-0.3 -4 0.2-7.9 0.5-11.9 1 -2.1 0.1-4.2 0.3-6.2 0.4 -4.6 0.4-9.3 0.8-13.9 1.4 -14.3 1.6-28.3 4.6-42.3 7.7 -17.3 3.8-34.4 8.8-51.4 14 -7.7 2.5-15.4 5.2-23.1 7.9 -2.3 0.4-4.5 0.9-6.8 1.3 -4.8 0.7-9.7 1.1-14.6 1.1 -5.3 0.1-10.7-0.1-16-0.6 -9-0.5-18-2.3-26.9-3.8 -17.6-3.1-35-8-52.3-12.5 -7.8-2.1-15.7-4.2-23.5-6.3 -4.1-1.1-8.2-2.1-12.4-3.2 -7.3-1.9-14.6-3.3-22.1-4.4 -13.5-2.3-27.5-1.2-41 0.2 -12.3 1.3-24.5 4-36.7 6.3 -11.7 2.3-23.4 4.1-35.3 5.2 -12.2 1.2-24.4 0.4-36.5-0.8 -5.5-0.7-11-1.6-16.4-2.5 -3-0.5-6-1-9.1-1.5 -5.8-1-11.7-1.7-17.6-2.2 -5.2-0.3-10.3-0.5-15.5-0.5 -2.3 0-4.6 0-6.9 0 -4.2 0-8.5 0.3-12.6 1.1 -15.9 2.1-31.3 8.2-47.5 7.5 -2.1-0.2-4.2-0.5-6.3-0.8 -1-0.2-2-0.5-3-0.7 -2.3-0.3-4.5-0.8-6.7-1.5 -2.7-0.4-5.3-1-7.9-1.9 -5.1-1.5-10.4-1.8-15.6-2.3 -4.3-0.1-8.6-0.4-12.9-0.9 -7.1-0.7-14.2-1-21.4-1.3 -13.3-0.6-26.7-0.9-40.1-1.4 -13.2-0.5-26.2-1.3-39.3-3 -4.5-0.6-9-1.5-13.5-2.6 -2-0.6-4-1.1-6-1.7 -3.9-1.1-7.8-1.9-11.9-2.4 -3.6-1-7.2-1.7-10.9-2.1 -5.7-0.9-11.7-0.3-17.4 0.2 -4.2 0.5-8.2 1.3-12.3 2.4 -2.1 0.6-4.2 1.2-6.3 1.8 -4 1-7.9 2-11.9 3.1 -3.8 1.1-7.7 2.1-11.5 3.1 -5.9 1.5-11.3 3.7-16.9 6 -3.7 1.4-7.3 2.9-11 4.4 -1.7 0.6-3.4 1.2-5.1 1.7 -2.9 1.3-5.8 2-8.9 2.3 -2.1 0.5-4.3 0.6-6.5 0.4 -0.8-0.1-1.6-0.2-2.4-0.3 -1.4 0.1-2.8 0-4.1-0.5 -1.7-0.8-3.5-1.4-5.3-1.8 -1-0.4-2-0.8-3.1-1.2 -2.5-0.8-5.1-1.7-7.5-2.6 -8.3-3-16.9-5.3-25.6-7.2 -4.1-0.8-8.2-1.6-12.3-2.5 -6.5-1.4-13.1-2-19.7-2.6 -12.6-1.2-25.2 0-37.7 1.6 -5.6 0.9-11.2 1.9-16.8 3.2 -2.9 0.6-5.8 1.3-8.7 1.9 -5.8 0.7-11.3 2.1-16.7 4.3 1 1.2 2.3 2.1 3.9 2.5 5.3 2.3 10.5 4.4 15.9 6.5 5.3 2.1 10.7 4.1 16 6C-31.4 241.8-29.9 242-28.3 241.8z" style="fill:#D4EDED;opacity:0.1"/><path d="M-34.2 229.1c6.1-1.6 12.2-3.1 18.4-4.4 5.5-1 11-1.6 16.6-1.8 -0.3 0-0.6 0-0.9 0 5-0.2 10 0 15 0.6 4.5 0.5 9 1.4 13.4 2.5 9.7 2.2 19 6.6 27.8 11.1 12.7 6.4 24.5 15 38.1 19.4 2.5 0.7 5 1 7.6 1 1.4-0.2 2.7-0.4 4.1-0.6 3.1-0.7 6-2 8.7-3.7 3.4-2.3 6.8-4.5 10.2-6.7 5.5-3.5 11-7 16.6-10.3 9.2-5.5 18.9-9.9 28.9-13.7 9-3.5 18.9-5 28.5-5.8 -0.3 0-0.6 0-0.9 0 2.2 0 4.4-0.1 6.5-0.1 -0.3 0-0.6 0-0.9 0 3.5 0 7 0.4 10.4 1.3 3.2 0.8 6.2 2 9 3.7 -0.6-0.4-1.2-0.9-1.9-1.3 1.9 1.4 3.8 2.7 5.7 4.1 -0.6-0.5-1.2-0.9-1.8-1.4 2.7 2.7 5.5 5.3 8.4 7.9 2.2 2 8.4 3.8 11 4.7 6.6 2.3 14.1 2.5 21 3.1 8.2 0.7 16.6 0.5 24.8 0.5 28.5 0.1 57.4-2.1 85.6 2.6 -0.3-0.1-0.6-0.1-0.9-0.2 2.2 0.5 4.3 1 6.5 1.4 -0.3-0.1-0.6-0.1-0.9-0.2 3.1 0.7 6 1.8 8.7 3.5 2.4 1.2 3.7 3.8 6.3 4.8 1.1 0.4 2.2 0.9 3.3 1.3 2.7 0.6 5.5 0.7 8.3 0.3 1.6-0.3 3.1-0.6 4.7-0.8 3.4-0.8 6.7-1.8 9.9-3 3.5-1.3 6.9-2.6 10.3-4.1 5.2-2.2 10.4-4.3 15.7-6.3 5.2-1.9 10.6-3.1 16-4.2 5.6-1.1 11.3-1 17-0.9 -0.3 0-0.6-0.1-0.9-0.1 6.3 0.7 12.4 1.8 18.6 3.2 7.4 1.7 14.6 4.6 21.7 7.3 7.1 2.7 9.5 3.2 16.8 4.8 5.5 0.9 11 1.3 16.5 1.2 5.6-0.1 11.1-0.6 16.6-1.5 8.2-1 16.3-3.3 24.3-5.4 7.8-2 15.5-4.5 23.3-6.7 7.4-2.1 14.8-3.9 22.3-5.5 4.8-0.9 9.6-1.6 14.5-2 4.8-0.4 9.6-0.4 14.4-0.1 -0.3 0-0.6 0-0.9-0.1 2.7 0.3 5.4 0.6 8.1 0.9 -0.3 0-0.6-0.1-0.9-0.1 4.9 0.7 9.7 1.9 14.4 3.4 5 1.6 9.9 3.7 14.6 6 14.5 6.6 29.6 12 44.7 17.2 13.8 4.7 28 8.1 42.2 11 6.7 1.2 13.4 2.2 20.2 2.8 9.6 1.1 19.3 0.5 28.9-0.2 6.2-0.7 12.3-1.9 18.3-3.6 6-1.8 11.8-4.1 17.3-7.1 8.1-4.2 16.4-8 24.9-11.5 10.7-4.6 21.9-8 33-11.4 12.3-3.7 25-6.1 37.7-8.1 12.1-1.9 24.3-2.4 36.6-1.9 -0.3 0-0.6 0-0.9-0.1 5.4 0.5 10.5 1.1 15.8 2.2 3.6 0.8 6.7 2.5 9.5 4.7 -1.6-1.7-3.2-3.3-4.8-5 1.6 1.8 3.1 3.7 4.7 5.5 0.6 1 1.4 1.7 2.5 1.9 0.1-1.1-0.2-2.1-1-2.9 -2-3.1-4.2-6.2-6.4-9.2 -1.3-1.8-2.6-3.5-3.9-5.3 -1.3-1.9-2.8-3.7-4.5-5.2 4.2 10 8.3 20 12.5 30 1.1-2.5 2.2-5 3.3-7.5 0.7-1.5-3.4-6.4-3.6-6.8 -2.5-3.6-5.1-7.1-7.7-10.6 -1.3-1.9-2.8-3.7-4.5-5.2 -3.7-1.7-7.3-2.9-11.3-3.6 -1.6-0.2-3.1-0.5-4.7-0.7 -5.9-0.3-11.9-0.4-17.8-0.5 -12.7-0.2-25.4 1.5-37.9 3.4 -16.4 2.4-32.3 6.9-48.2 11.6 -7.3 2.3-14.5 4.8-21.7 7.6 -8.2 3.2-16.3 6.9-24.2 10.9 -4.8 2.1-9.8 3.6-15 4.7 -8.1 2.1-16.8 2-25.1 2.1 -6.1-0.1-12.2-0.6-18.3-1.3 -10-1-19.8-3.3-29.6-5.4 -18.5-4.1-36.6-10.1-54.5-16.1 0.3 0.1 0.6 0.2 0.9 0.3 -10.6-3.7-21.3-7.5-32-10.9 -5.3-1.7-10.9-2.4-16.3-3.4 -15.5-2.6-31.4-0.4-46.7 2.5 -7.4 1.4-14.6 3.4-21.9 5.2 -9.7 2.5-19.5 4.9-29.3 6.9 -7.5 1.5-15 2.1-22.6 2.6 -10.6 0.6-21-1.4-31.3-3.7 -2.5-0.7-5-1.4-7.6-2.1 -5.4-1.7-10.9-3.1-16.5-4.2 -2.8-0.6-5.7-1.1-8.6-1.5 -4.8-0.6-9.1-1.1-13.9-1.6 -8.2-0.8-16.3 0.4-24.3 2 -12 2.3-23.4 7.5-35.1 11.2 -3.7 1.2-7.6 1.6-11.4 1.7 -4.6 0.2-8.9-1.4-13.2-2.9 0.3 0.1 0.6 0.2 0.8 0.3 -4-2-8.4-4.3-12.9-5.1 -13.1-2.3-26.3-3.4-39.6-3.9 -16.3-0.7-32.7-0.4-49.1-0.5 -8.2-0.1-16.4-0.3-24.6-0.7 -2.6-0.2-5.1-0.4-7.7-0.6 -4.6-0.4-9.2-1.1-13.8-2.3 0.3 0.1 0.6 0.2 0.9 0.3 -2.2-0.7-4.3-1.4-6.5-2.2 0.3 0.1 0.6 0.2 0.9 0.3 -3.4-1.4-6.8-2.8-10.1-4.3 -3-1.8-6.1-3.4-9.3-4.8 -5.1-2.5-10.8-3.2-16.4-3.8 -6.7-0.7-13.1 0.4-19.7 1.4 -9.8 1.6-19.5 4-29 6.7 -3.9 1.6-7.8 3.2-11.6 4.9 -3.8 1.9-7.5 3.8-11.3 5.8 -3.6 2.1-7.2 4.3-10.8 6.4 -4.3 2.5-8.6 4.9-13.1 6.9 -1.9 0.8-3.8 1.5-5.8 2 -1.9 0.3-3.9 0.2-5.8-0.1 -2.1-0.4-4.1-1-6.1-1.8 -3.8-1.3-7.4-3-11.1-4.6 0.3 0.1 0.5 0.3 0.8 0.4 -8-3.7-16-7.1-24.2-10.2 -3.7-1.5-7.4-2.9-11.2-4.1 -6.2-2.2-12.7-3.6-19.1-5 -4.8-0.9-9.5-1.5-14.4-1.9 -2.8-0.3-5.7-0.4-8.6-0.4 -2.7 0-5.3 0.1-8 0.1 -5.7 0.3-11.3 0.9-16.9 1.9 -2.9 0.5-5.9 1.1-8.8 1.6 -6 1.2-12 2.3-18 3.4 0.3 1.1 1.1 1.9 2.2 2.4 3.3 2.2 6.6 4.4 9.9 6.4 3.3 2.1 6.7 4.1 10.2 6C-36.3 228.9-35.3 229.2-34.2 229.1z" style="fill:#D4EDED;opacity:0.1"/><path d="M-25.5 219.7c5.8-2 11.7-3.6 17.7-4.8 8-1.8 16.3-1.8 24.4-1.6 -0.3 0-0.5-0.1-0.8-0.1 2.7 0.3 5.4 0.6 8.2 0.9 -0.3 0-0.5-0.1-0.8-0.1 4.6 0.7 9.1 1.6 13.5 2.9 4.1 1.2 8.1 2.6 12.1 4.3 8.8 3.4 17 8.5 25.1 13.3 6.7 4 13.2 8.2 20.1 11.7 1.5 0.6 2.9 1.2 4.4 1.8 1.2 0.4 2.5 0.8 3.7 1.2 2.5 0.6 5 0.9 7.6 0.9 2.9-0.5 5.7-1.3 8.4-2.5 3.4-1.7 6.6-3.7 9.6-6.1 3.6-2.5 7.2-5 10.8-7.5 5.5-3.8 11.2-7.3 16.9-10.8 3.8-2 7.6-4 11.4-5.8 5.5-2.7 11.4-4.7 17.2-6.5 3.8-1.1 7.6-1.9 11.5-2.6 5.7-1.2 11.4-1.3 17.2-1.2 -0.3 0-0.5 0-0.8-0.1 2.1 0.2 4.2 0.4 6.3 0.6 -0.3 0-0.5-0.1-0.8-0.1 3.4 0.6 6.7 1.6 9.8 3 3 1.5 5.7 3.3 8.2 5.5 -0.4-0.4-0.7-0.8-1.1-1.2 2.4 2.8 4.9 5.5 7.6 8.1 2.4 2.4 7.4 4.3 10.6 5 2.1 0.5 4.2 1 6.3 1.4 4.9 0.8 9.9 1.3 14.8 1.4 8.3 0.6 16.6 0.3 24.9 0.3 28.5-0.2 57.4-2.5 85.6 2.4 -0.2-0.1-0.5-0.1-0.7-0.2 2.1 0.5 4.2 1 6.3 1.5 -0.2-0.1-0.5-0.1-0.7-0.2 3.2 0.7 6 2 8.7 3.8 0.9 0.8 1.9 1.7 2.8 2.5 1.6 1.8 3.5 3 5.8 3.7 2.5 1.2 6.1 0.6 8.8 0.5 1.6-0.4 3.1-0.7 4.7-1.1 3.4-0.9 6.8-2.1 10-3.5 5.3-2.1 10.5-4.6 15.7-7 5.1-2.3 10.4-4.3 15.8-6 5.3-1.8 10.7-2.6 16.3-3.3 1.9-0.1 3.8-0.1 5.7-0.2 3.9 0 7.8 0.3 11.7 0.9 -0.2 0-0.5-0.1-0.8-0.1 6.7 1.3 13.1 2.9 19.7 4.9 2.4 0.9 4.8 1.8 7.2 2.6 5.1 2.2 10.2 4.3 15.4 6.1 5.4 2 11.2 2.4 16.9 3 5.6 0.3 11.1 0.1 16.6-0.5 5.6-0.6 11.1-1.6 16.5-2.8 8.1-1.6 16.1-4.2 24-6.6 7.6-2.3 15.2-4.6 22.9-6.8 7.3-2.1 14.6-3.5 22-4.8 4.8-0.7 9.6-1 14.5-1 4.8 0 9.6 0.4 14.4 1.2 -0.2 0-0.5-0.1-0.7-0.1 4.9 0.8 9.7 2.1 14.4 3.7 5 1.8 9.9 4 14.6 6.5 7.2 3.4 14.5 6.6 21.9 9.5 7 2.9 15.2 5.9 22.4 8.2 7 2.4 14.2 4.5 21.3 6.4 6.9 1.8 13.8 3.4 20.8 4.7 6.7 1.2 13.4 2.1 20.2 2.7 9.7 1 19.3 0.3 29-0.5 6.2-0.8 12.3-2.1 18.3-4 6-1.9 11.8-4.4 17.3-7.6 8.2-4.2 16.5-8.2 25-11.8 10.6-4.7 21.8-8.2 32.8-11.6 14.9-4.6 30.4-7.2 45.9-9.1 11.3-1.4 22.8-1.2 34.1 0 -0.2 0-0.5-0.1-0.8-0.1 2 0.3 4.1 0.7 6.1 1 -0.2 0-0.5-0.1-0.7-0.1 3 0.5 5.9 1.3 8.7 2.6 2.2 0.8 4.1 2.1 5.6 3.8 -0.3-0.4-0.7-0.8-1-1.2 0.5 0.8 1.1 1.5 1.6 2.3 -2-4.6-4-9.2-6-13.8 1.2 3.3 2.4 6.6 3.6 10 -0.7-2.3-1.5-4.5-2.2-6.8 0.4 1.9 0.8 3.9 1.2 5.8 -0.2-1.4-0.3-2.8-0.5-4.2 0 1.5-0.1 2.9-0.1 4.4 0.1-0.4 0.2-0.9 0.2-1.3 -0.5 1.5-0.9 2.9-1.4 4.4 -1 3.1-1.3 6.7-1.7 10 0.1-1.1-0.7 5 0.4 4.4 2-0.6 3.7-1.6 5.1-3 0.9-0.9 1.8-1.9 2.5-3 1-1.9 1.3-3.9 0.8-6 -0.2-2.8-2-6-3.1-8.5 -1-2.3-2.1-4.6-3.2-6.8 -1.5-2.5-4.6-4-6.9-5.5 -2.8-1.3-5.7-2.3-8.6-3.1 -3.6-1.2-8.8-1.4-12.6-1.8 -24.2-2.9-48.7 1.3-72.1 6.8 -6.8 1.7-13.6 3.7-20.2 6 -11.3 3.6-22.1 8.7-32.8 13.8 -6.7 3.7-13.4 7.3-20.1 10.9 -7.5 4-16.2 5.4-24.4 6.8 -6 0.7-12 1-18 0.9 -6.4-0.2-12.8-0.7-19.2-1.6 -6.8-1-13.5-2.2-20.2-3.7 -10.8-2.2-21.4-5.7-31.9-9 -18.1-5.8-35.6-13.6-53-21.3 -5.3-2.1-10.6-3.8-16.2-5 -2.8-0.8-5.8-1.3-8.7-1.6 -5.2-0.7-10.4-1-15.6-0.9 -5.1 0.1-10.1 0.5-15.1 1.3 -4.9 0.8-9.8 1.8-14.7 3 -7.3 1.7-14.6 4.2-21.7 6.5 -4.9 1.6-9.7 3.1-14.6 4.6 -7.4 2.3-14.9 4-22.6 5.6 -5.1 0.9-10.3 1.4-15.5 1.5 -8.1 0.5-15.9-1.4-23.7-3.3 0.2 0.1 0.5 0.1 0.7 0.2 -8.2-3-16.3-6.1-24.5-8.8 -7-2.3-14.4-3.5-21.6-4.9 -4.7-0.9-8.4-0.9-13.1-0.9 -6 0-11.7 1.2-17.5 2.4 -1.8 0.6-3.6 1.2-5.4 1.8 -3.5 1.1-6.9 2.5-10.2 4.2 -4.8 2.2-9.4 4.7-14.1 7.1 -4 2-7.9 3.7-12.2 5 -3.6 1.1-6.5 0.7-10 0 0.2 0.1 0.4 0.2 0.7 0.3 -1-0.5-2.1-1-3.1-1.6 -2.2-1.7-4.5-3.3-6.8-4.7 -3.6-2.4-6.5-2.8-10.8-3.9 -6.3-1.6-12.8-2.3-19.2-3 -7.4-0.8-14.9-0.9-22.4-1.1 -16.6-0.4-33.2 0.4-49.8 0.7 -8.1 0.1-16.2 0-24.3-0.2 -2.5-0.2-5-0.4-7.5-0.6 -4.3-0.3-8.5-1.2-12.5-2.7 0.2 0.1 0.5 0.1 0.7 0.2 -3.5-1.3-6.6-3-9.6-5.3 -2.9-2.4-5.8-4.8-8.7-7 -3.3-2.2-6.8-4-10.5-5.5 -3.9-1.2-7.8-2.1-11.8-2.7 -2.5-0.4-5-0.4-7.5-0.2 -4.3 0.1-8.7 0.4-13 1 -7.7 0.8-15.5 3-22.9 5.1 -3.9 1.6-7.7 3.2-11.5 5 -3.7 2-7.4 4.1-11 6.2 -3.6 2.5-7.2 5-10.7 7.6 -3.2 2.6-6.5 5.3-9.7 7.9 -2.4 2.1-4.8 4.2-7.2 6.2 -1.7 1.5-3.7 2.5-5.8 3.2 -4.3 1.8-9.1-0.1-13.1-1.7 0.2 0.1 0.4 0.2 0.7 0.3 -7-3-13.6-7-20.2-10.8 -10.8-6.2-21.9-11.8-33.5-16.4 -6.8-2.7-14-4.3-21.1-5.8 -2.8-0.6-5.7-1-8.6-1.3 -2.7-0.2-5.5-0.4-8.2-0.6 -5.8-0.2-11.6 0-17.3 0.7 -3 0.4-6 0.9-9 1.3 -5.9 1.3-11.8 2.3-17.7 3 -0.1 1 0.3 1.8 1.1 2.5 2.1 2.5 4.3 4.9 6.6 7.2 2.2 2.4 4.5 4.7 6.9 6.9C-27.3 219.3-26.4 219.7-25.5 219.7z" style="fill:#D4EDED;opacity:0.1"/><path d="M-30.1 250.1c2.9-1 5.8-2 8.6-3.1 -0.4 0.1-0.7 0.2-1.1 0.4 3-0.7 6-1.3 9-2 5.5-1 11-1.7 16.6-1.9 9.5-0.7 19.1 1 28.4 3 -1.1-0.3-2.1-0.6-3.2-0.9 3.1 0.9 6.3 1.8 9.4 2.6 -1.1-0.4-2.1-0.7-3.2-1.1 3 1 6 2 9 3.1 -1.1-0.4-2.1-0.8-3.2-1.2 2.9 1.1 5.8 2.3 8.7 3.4 -1-0.5-2.1-0.9-3.1-1.4 6.2 2.8 12.2 5.6 18.2 8.8 4.5 2.4 8.9 4.9 13.4 7.4 4.3 2.4 8.6 4.5 13.1 6.6 2.5 1.1 5 2 7.6 2.6 2.6 0.7 5.2 0.9 7.8 0.8 4.8 0.1 8.9-2.6 12.7-5.1 1.6-1.2 3.2-2.4 4.8-3.5 3.4-2.3 6.8-4.4 10.3-6.5 5.3-3.3 11.1-6.2 16.6-9.1 7.5-3.9 15.3-7.1 23.2-10 -0.4 0.1-0.7 0.3-1.1 0.4 5.8-1.8 11.5-3.3 17.4-4.6 7.4-1.6 14.8-1.6 22.2-1.1 -1.1-0.2-2.1-0.4-3.2-0.5 2.7 0.5 5.5 1 8.2 1.5 -11.4-3.8-22.9-7.6-34.3-11.3 19.6 8.5 39.1 17.3 58.4 26.5 0.4 0.1 0.8 0.2 1.2 0.4 4 1.3 8 2.3 12.2 2.9 4.9 0.7 9.9 1.2 14.9 1.5 8.2 0.6 16.5 0.5 24.8 0.5 26.5 0.1 53.1-1.3 79.5 1.8 -0.4-0.1-0.8-0.1-1.3-0.2 3.9 0.5 7.7 1.3 11.5 2.3 3 0.8 5.9 2 8.6 3.6 -2.9-2.1-5.8-4.2-8.7-6.3 4.7 3.6 9.4 7.3 14.1 10.9 1.5 0.6 3 1.1 4.6 1.6 2.9 0.5 5.7 0.4 8.6-0.2 3.3-0.6 6.5-1.4 9.7-2.6 6.9-2.1 13.5-5.3 20.2-7.9 3.4-1.4 6.8-2.6 10.3-3.8 5.2-1.8 10.5-2.9 15.9-3.9 -0.4 0.1-0.8 0.1-1.2 0.2 1.9-0.2 3.7-0.4 5.6-0.6 3.8-0.3 7.7-0.4 11.5-0.1 6.3 0.1 12.6 1.7 18.7 3 7.4 1.6 14.6 4.5 21.6 7.2 3 1.3 6 2.3 9.2 2.9 5.4 1.4 10.9 2.3 16.4 2.6 8.3 0.9 16.8-0.4 25-1.5 8.2-1.1 16.3-3.3 24.2-5.4 7.8-2 15.4-4.4 23.2-6.6 9.7-2.8 19.5-4.9 29.5-6.6 -0.4 0.1-0.8 0.1-1.2 0.2 4.8-0.7 9.6-1 14.4-1.1 4.8 0 9.6 0.3 14.3 1 10.2 1.1 19.8 5.2 29 9.3 14.7 6.6 30 11.8 45.2 17 13.9 4.7 28.1 8 42.4 10.9 6.7 1.2 13.4 2.1 20.2 2.7 6.5 0.6 13 0.7 19.5 0.4 6.3-0.3 12.5-1 18.6-2.2 6.1-1.2 11.9-3 17.7-5.4 6.9-3.3 13.9-6.6 20.9-9.9 7.7-3.4 15.5-6.6 23.4-9.4 13.4-5.1 27.4-8.6 41.3-11.8 -0.4 0.1-0.8 0.2-1.2 0.2 6-1.3 12-2.3 18-3.2 7.8-1.3 15.6-1.7 23.5-2.2 11-0.6 22.3 0.2 32.8 3.7 -12-6.4-24-12.8-35.9-19.2 13 10.9 25.9 21.8 38.9 32.7 1.2 1.1 1.5 0.9 0.9-0.6 -0.6-1-1.1-2.1-1.7-3.1 -3.2-4.9-6.4-9.8-9.8-14.6 -2-2.8-3.9-5.6-5.9-8.4 -1.9-3-4.1-5.8-6.5-8.5 8 11.9 16.1 23.9 24.1 35.8 2.3-1.3 3.7-3.2 4.3-5.8 -0.5-1.5-1.4-2.8-2.8-3.8 -4.1-4.1-8.3-8-12.6-11.9 -4.2-3.9-8.6-7.8-12.9-11.6 -1.1-1.3-2.4-2.1-4-2.5 -2.8 1.1-5.8 1.4-8.8 1 -4.5 0.2-9 0.5-13.5 0.9 -3.9 0.3-7.8 0.8-11.7 1.2 -4.1 0.5-8.1 0.9-12.2 1.5 -21.1 2.8-41.8 7.8-62.4 13.1 -19.1 4.9-38 10.7-56.9 16.2 -2.5 0.3-5.1 0.5-7.6 0.8 -5.2 0.4-10.5 0.4-15.8 0.2 -8.5-0.1-17.1-1.4-25.5-2.5 -16.5-2.2-32.9-6.3-49.1-10.2 -22.8-5.4-45.4-11.5-68.4-16.1 -18.3-3.6-37.4-1.7-55.7 1 -12.3 1.8-24.4 4.5-36.6 6.5 -14.9 2.5-29.8 3.4-44.8 3.1 -13.2-0.2-26.4-2.5-39.5-4.3 -8.4-1.2-16.8-2.2-25.3-2.7 -4.3-0.3-9-0.1-13.3 0 -4.5 0.1-9.3 0.1-13.7 0.8 -11.2 1.7-22.2 4.1-33.3 6.3 0.4-0.1 0.8-0.1 1.2-0.2 -3.7 0.4-7.3 0.8-11 1.2 0.4 0 0.8 0 1.2-0.1 -3.4 0-6.8-0.1-10.1-0.3 0.4 0 0.8 0 1.2 0.1 -4.3-0.6-8.4-1.5-12.6-2.5 0.4 0.1 0.8 0.2 1.2 0.3 -2.7-1-5.5-1.8-8.4-2.1 -1.2-0.3-2.4-0.6-3.6-1 -2.5-0.2-5.1-0.6-7.5-1.2 -4.7-1-9.6-1-14.4-1.4 -2.1-0.1-4.1-0.1-6.2-0.2 -4.3-0.4-8.6-0.7-13-0.9 -31.7-2.1-63.5-1.8-95-6.3 -6.8-1-13.4-2.7-20-4.4 -1.9-0.4-3.8-0.7-5.7-1.1 -3.6-0.2-7.1-0.6-10.7-1.2 -1.5-0.1-3-0.1-4.5-0.2 -1.6 0-3.2 0-4.8-0.1 -5.3 0.4-10.3 1-15.5 2 -5.4 1-10.6 2.9-15.8 4.3 -5.7 1.6-11.4 3.4-17.1 5 -4.7 1.3-7.9 2.5-12.5 4.2 -5.8 2.2-11.5 4.4-17.3 6.6 0.4-0.1 0.7-0.2 1.1-0.3 -4.1 1.2-8.1 2.3-12.2 3.4 0.4-0.1 0.8-0.2 1.2-0.3 -3.2 0.2-6.4 0.3-9.6 0.3 -1.2-0.3-2.4-0.5-3.6-0.8 -2.4-0.7-4.7-1.3-7.2-1.7 0.4 0.1 0.8 0.2 1.2 0.3 -1.3-0.4-2.6-0.9-3.9-1.3 0.4 0.1 0.8 0.3 1.2 0.4 -7.1-3.5-14.8-5.7-22.4-7.8 -12.4-3.4-25-5.4-37.7-6.9 -10.4-1.2-20.8-0.9-31.2-0.3 -10.3 0.6-20.5 2.9-30.5 5.1 -5.7 1.4-11.4 2.8-17.2 4 -3.1 1-6.2 2-9.4 3 1.1 1 2.4 1.5 4 1.6 5.1 1.1 10.3 2.1 15.5 2.9 5.2 0.9 10.3 1.7 15.5 2.5C-32.9 250.7-31.5 250.6-30.1 250.1z" style="fill:#D4EDED;opacity:0.1"/><path d="M-31.2 236c5.7-2.4 11.5-4.1 17.6-5 8-1.7 16.1-1.9 24.2-1.8 -0.4 0-0.8 0-1.2-0.1 2.8 0.2 5.6 0.4 8.4 0.6 -0.4 0-0.8-0.1-1.2-0.1 4.5 0.5 9 1.3 13.4 2.4 4.1 1 8.1 2.2 12.1 3.7 8.9 3 17.2 7.6 25.4 11.9 6 3.1 11.8 6.5 17.9 9.6 2.5 1.3 5 2.4 7.7 3.4 3.7 1.5 7.5 1.9 11.5 2.1 2.9-0.2 5.7-0.9 8.3-2 3.3-1.6 6.4-3.5 9.4-5.8 8.6-5.9 17.7-11 26.9-16 9.2-4.9 18.9-8.8 28.9-11.9 9.2-2.9 18.8-3.9 28.4-4.1 -0.4 0-0.8 0-1.2 0 2.2 0.1 4.4 0.3 6.6 0.4 -0.4 0-0.8-0.1-1.2-0.1 1.7 0.3 3.3 0.6 5 0.9 3.2 0.7 6.2 1.9 9 3.5 -0.9-0.6-1.7-1.2-2.6-1.7 2.2 1.5 4.3 3 6.5 4.4 -0.8-0.6-1.7-1.3-2.5-1.9 3 2.8 6.1 5.5 9.2 8.1 1.9 0.9 3.9 1.9 5.8 2.8 3.9 1.4 7.9 2.5 12.1 3.2 7.4 1.6 15.2 1.6 22.7 2 8.4 0.4 16.9 0.2 25.3 0.2 16.6-0.1 33.2-0.3 49.8 0.1 7.1 0.2 14.1 0.9 21.1 1.7 5.6 0.6 11 2.1 16.4 3.8 -0.4-0.1-0.7-0.3-1.1-0.4 2.5 0.9 4.8 2.3 6.7 4.2 2.9 2.4 3.5 2.6 7.1 3.9 1.3 0.1 2.7 0.3 4 0.4 3.1 0 6.2-0.4 9.2-1.1 5.1-1 10.1-3.1 14.9-5 5.1-1.9 10.2-4.1 15.3-6.1 5.1-2 10.4-3.4 15.7-4.8 5.4-1.4 11-1.7 16.6-2 6-0.3 12 0.8 17.9 1.8 -0.4-0.1-0.8-0.2-1.1-0.2 2.6 0.6 5.1 1.1 7.7 1.7 -0.4-0.1-0.8-0.2-1.1-0.3 2.7 0.7 5.3 1.4 8 2.2 -0.4-0.1-0.7-0.2-1.1-0.3 2.8 0.9 5.6 1.8 8.4 2.7 -0.4-0.1-0.7-0.2-1.1-0.4 5.5 2.2 11.1 4.1 16.7 5.9 7.9 2.6 16.5 2.7 24.7 2.9 5.6-0.1 11.1-0.6 16.6-1.5 8.2-1 16.3-3.2 24.2-5.3 12.8-3.2 25.3-7.2 38.1-10.4 7.2-1.8 14.5-2.7 21.8-3.5 7.2-0.8 14.3-0.1 21.5 0.6 -0.4-0.1-0.8-0.1-1.2-0.2 2.8 0.5 5.5 1 8.3 1.6 -0.4-0.1-0.8-0.2-1.1-0.3 2.8 0.7 5.6 1.5 8.4 2.2 -0.4-0.1-0.8-0.2-1.1-0.3 5.1 1.6 10 3.5 14.7 5.8 7.7 3.3 15.4 6.4 23.3 9.4 14.2 5.6 28.7 9.9 43.3 14 13.5 3.7 27.2 5.9 41 7.5 6.5 0.6 12.9 0.8 19.4 0.6 9.4 0 18.5-2.1 27.6-4.3 6-1.7 11.7-4 17.2-7 8.1-4 16.3-7.7 24.6-11.1 16.9-7.2 34.8-12 52.7-16.1 11.2-2.6 22.6-3.9 34.1-4.9 10.5-0.9 21.1-0.4 31.5 1 -0.4-0.1-0.8-0.2-1.1-0.2 1.9 0.4 3.9 0.8 5.8 1.2 -0.4-0.1-0.8-0.2-1.1-0.3 1.3 0.4 2.6 0.8 3.9 1.2 2.1 0.7 4 1.8 5.6 3.3 -8.5-9.2-17-18.4-25.4-27.6 5 15.2 13.1 27.7 24.5 37.5 1.3-0.5-3.4-11.5-2.8-10 -2.8-7.5-5.7-15.2-9.1-22.5 -0.5-0.9-1-1.8-1.5-2.7 4.4 11.7 8.9 23.4 13.3 35.2 1.2-1.7 2.5-3.5 3.7-5.2 0-1.4-0.6-2.7-1.6-3.9 -2.7-4.3-5.6-8.6-8.5-12.8 -2.9-4.3-5.8-8.4-8.9-12.6 -0.7-1.3-1.7-2.3-3-2.9 -2.2-0.3-4.4-0.7-6.5-1.3 -4.3-1-8.8-1-13.2-1.2 -4 0-8 0.2-11.9 0.5 -2.1 0.1-4.2 0.1-6.3 0.2 -4.7 0.2-9.3 0.6-14 1.1 -14.3 1.3-28.4 4.2-42.5 7.2 -17.4 3.8-34.5 9-51.4 14.6 -7.9 2.8-15.6 5.9-23.3 9.2 -2.3 0.6-4.6 1.2-6.9 1.8 -4.9 1-9.8 1.7-14.8 2 -5.4 0.3-10.8 0.3-16.3 0 -9.1-0.3-18.2-1.9-27.1-3.4 -17.6-2.9-35-7.9-52.1-12.7 -19-5.3-37.7-11.4-56.9-15.6 -5.7-1-11.3-1.7-17.1-2 -7.9-0.7-16 0.1-23.9 0.7 -12.4 1-24.7 3.9-36.9 6.5 -11.8 2.5-23.6 4.9-35.5 6.6 -12.2 1.7-24.5 1.4-36.7 0.2 -5.4-0.7-10.8-1.6-16.2-2.8 -3-0.6-5.9-1.3-8.9-1.9 -5.7-1.3-11.5-2.3-17.4-2.9 -5.1-0.6-10.3-1-15.4-1.2 -2.3-0.1-4.6-0.2-6.8-0.3 -4.3-0.2-8.5 0.1-12.7 0.8 -9.4 1.1-18.6 3.6-27.7 6.1 -6.8 1.9-13.7 3.5-20.8 4 -5.4 0.4-10.9-0.8-16-2.3 -2.6-0.5-5.1-1.3-7.6-2.3 -4.9-1.8-10.2-2.3-15.4-2.9 -4.3-0.2-8.6-0.6-12.8-1.2 -7.1-0.8-14.3-1-21.4-1.3 -13.4-0.6-26.8-0.7-40.3-1 -13.3-0.3-26.5-0.9-39.7-2.3 -10.5-1.1-20.3-5-30.5-7.6 -3.4-1.3-7-2.3-10.5-3.2 -5.7-1.5-11.7-1.3-17.5-1.2 -4.2 0.2-8.4 0.8-12.5 1.8 -2.2 0.5-4.3 1-6.5 1.6 -4 0.9-8.1 1.8-12.1 2.9 -3.8 1-7.7 2-11.6 3 -5.9 1.5-11.3 3.9-17 6.2 -8.5 3.6-16.7 8.1-25.4 11.1 -4.4 1.5-9 2.5-13.7 2 -1.8-0.5-3.6-1-5.4-1.6 -1-0.4-2-0.8-3.1-1.2 -2.5-0.8-4.9-1.7-7.4-2.7 -18-7-36.8-12.3-55.9-15.2 -12.6-1.9-25.3-1.4-37.9-0.3 -5.7 0.7-11.4 1.6-17 2.7 -2.9 0.6-5.8 1.2-8.8 1.8 -5.8 0.8-11.4 2.1-16.9 4.1 0.8 1.3 1.9 2.2 3.3 2.7 4.6 2.5 9.3 5 14 7.3 4.7 2.4 9.4 4.7 14.2 6.9C-34 235.8-32.7 236.1-31.2 236z" style="fill:#D4EDED;opacity:0.1"/></g></g></g><g opacity="0.9"><g><g><path d="M-49.3 232.5c7.3-1.8 14.7-2.7 22.2-2.7 10.2-0.6 20.4 0.3 30.5 1.3 14.2 1.4 28.1 5.6 41.6 10.2 19.6 6.6 37.6 17.6 57.5 23.2 3 0.8 6 1.2 9 1.2 5.1 0.3 9.4-1.9 13.7-4.3 3.3-2.4 6.7-4.6 10.1-6.9 5.2-3.5 10.7-6.7 16.2-9.8 9.2-5.3 18.8-9.4 28.7-13.1 10.9-4 22.5-5.7 34.1-5.8 -0.4 0-0.8 0-1.2-0.1 2.2 0.2 4.4 0.3 6.5 0.5 -0.4 0-0.8-0.1-1.2-0.1 3.3 0.4 6.5 1.2 9.6 2.4 2.9 1.2 5.6 2.8 8 4.8 -0.8-0.7-1.6-1.4-2.4-2 1.9 1.8 3.7 3.5 5.6 5.3 1.2 1.5 2.7 2.7 4.5 3.5 1.6 0.8 3.2 1.6 4.8 2.4 4 1.4 8 2.5 12.2 3.2 7.4 1.6 15.3 1.6 22.8 1.9 8.4 0.4 16.9 0.2 25.3 0.2 16.6-0.1 33.2-0.3 49.8 0.1 7.1 0.2 14.1 0.9 21.1 1.7 5.6 0.7 11 2.1 16.3 3.8 -0.4-0.2-0.7-0.3-1.1-0.5 1.6 0.8 3.2 1.6 4.8 2.5 -0.3-0.2-0.7-0.4-1-0.6 1.8 1.5 3.6 3 5.4 4.4 2.5 1.9 5.5 2 8.5 2.3 4.7 0.5 9.9-1.3 14.3-2.6 5.2-1.4 10.3-3.8 15.2-5.9 5.1-2.1 10.2-4.1 15.4-5.9 5.2-1.8 10.5-2.9 15.9-3.9 11.9-2.2 23.9-0.2 35.5 2.4 7.4 1.7 14.6 4.5 21.6 7.2 2.6 0.9 5.3 1.8 7.9 2.7 5.4 1.4 10.9 2.3 16.4 2.7 8.3 0.9 16.8-0.3 25-1.4 8.2-1 16.3-3.3 24.3-5.4 7.8-2 15.5-4.4 23.2-6.6 7.4-2.1 14.8-3.8 22.2-5.4 7.1-1.5 14.4-1.9 21.6-2.2 7.2-0.3 14.3 1 21.4 2.4 -0.4-0.1-0.8-0.2-1.1-0.3 2.8 0.8 5.5 1.5 8.3 2.3 -0.4-0.1-0.8-0.2-1.1-0.4 2.8 1 5.6 2 8.4 3 -0.4-0.1-0.7-0.3-1.1-0.4 7.2 3.4 14.6 6.4 22.1 9.1 8.8 3.3 17.8 6.3 26.8 9 16.7 5.3 33.9 8.5 51.1 11.2 7.9 1.1 15.9 1.8 23.9 2.1 7.6 0.3 15.1 0.2 22.6-0.4 16.9-0.8 32.9-6.2 48.8-11.3 25.7-8.2 51.4-16.5 77.3-24 9.7-2.8 19.5-5.3 29.4-7.5 8.7-2 17.7-3.5 26.7-3.2 -0.4-0.1-0.8-0.1-1.2-0.2 1.1 0.2 2.2 0.4 3.3 0.6 -0.9-0.5-1.9-1.1-2.8-1.6 1.7 0.9 3.3 1.9 5 2.8 1.3 0.6 1.6 0.3 0.7-0.8 -2.3-2.4-4.8-4.6-7.4-6.6 -4.9-4-9.9-7.9-15-11.8 -1.8-1.3-3.6-2.7-5.3-4 -1.1-1.1-2.4-1.8-3.9-2 -6 0.1-11.7 1.2-17.6 2.5 -4 1.1-8 2.1-12.1 2.8 -6.8 1.4-13.6 3.1-20.4 4.7 -26.9 6.6-53.5 14.4-80.4 21 -10.1 2.5-20.4 4-30.7 5.5 -6.2 0.7-12.4 1.1-18.6 1.1 -10.6 0.3-21.2-1-31.6-2 -21.4-2.2-42.4-7.3-63.2-12.4 -9.6-2.5-19.2-5.1-28.7-7.9 -5.2-1.4-10.3-2.8-15.5-4.2 -6-1.5-12.1-2.6-18.3-3.2 -10.9-1.6-22.1-0.8-33 0.1 -12.4 1-24.6 3.8-36.7 6.3 -11.5 2.4-23 4.6-34.6 6.3 -12 1.7-23.9 1.5-36 0.4 -5.5-0.7-11-1.5-16.4-2.6 -3-0.6-6.1-1.2-9.1-1.9 -5.9-1.3-11.9-2.3-18-2.9 -5.3-0.6-10.5-0.9-15.8-1.1 -2.3-0.1-4.6-0.2-7-0.2 -4.3-0.2-8.6 0.1-12.9 0.8 -15.9 1.8-30.9 7.7-46.8 9.5 -4.1 0.4-8.1-0.1-12.1-0.6 -2.4-0.6-4.8-1.2-7.2-1.8 -1.3-0.5-2.7-1-4-1.5 -3.2-1.1-6.5-1.9-9.9-2.5 -4.2-0.6-8.4-1-12.7-1.2 -2.1-0.2-4.3-0.5-6.4-0.7 -4.6-0.4-9.3-0.8-13.9-1 -13-0.8-26.2-0.9-39.2-1.2 -13.3-0.3-26.7-0.7-40-1.6 -4.8-0.4-9.6-0.9-14.3-1.7 -6.1-0.9-12-3-17.9-4.7 -4.1-0.8-8.1-1.8-11.9-3.3 -5.9-1.9-11.7-2.3-17.8-2.7 -4.2 0-8.4 0.4-12.6 1 -2.2 0.4-4.3 0.9-6.5 1.3 -4.2 1.1-8.4 2.2-12.7 3.1 -7.7 1.8-15.3 3.9-23 5.9 -3.8 1.4-7.6 3-11.4 4.5 -5.3 2.2-10.5 4.5-15.7 6.8 -5.5 2.3-11 4.5-16.9 5.6 -1.2 0.4-2.4 0.4-3.7-0.1 -1-0.1-2-0.3-3-0.4 -2.5-0.7-5-1.3-7.5-1.8 -3.3-1-6.7-1.9-10.1-2.8 -6-1.6-11.8-3.9-17.7-5.9 -12.2-4.3-24.5-7.6-37.1-10.6 -15.5-3.6-31.3-5-47.1-5.7 -7.1-0.2-14.3-0.1-21.4 0.2 -3.7 0.2-7.4 0.4-11.1 0.6 -7.1-0.2-14.2 0.5-21.2 1.9 0.5 1.4 1.4 2.5 2.8 3.4 4.1 3.5 8.2 7 12.4 10.3 4.2 3.4 8.4 6.7 12.7 9.9C-52.1 231.6-50.8 232.3-49.3 232.5z" style="fill:#D4EDED;opacity:0.1"/><path d="M-54.9 224.3c7.4-1.3 15-2.1 22.5-2.3 10.2-0.6 20.4 0.3 30.6 1.3 14.3 1.4 28.2 5.6 41.8 10.2 11 3.7 21.6 8.7 32.2 13.5 5.2 2.4 10.5 4.7 15.8 6.8 4.6 1.8 9.3 3 14.1 4 2.9 0.4 5.9 0.4 8.8 0 1.5-0.4 2.9-0.9 4.4-1.3 3.4-1.5 6.6-3.4 9.5-5.7 8.8-5.9 17.8-11.3 27.1-16.5 9.1-5 18.9-8.9 28.8-12 5.6-1.8 11.4-2.6 17.2-3.5 5.5-0.8 11.1-0.6 16.6-0.3 -0.4-0.1-0.7-0.1-1.1-0.2 2 0.4 4.1 0.7 6.1 1.1 -0.4-0.1-0.7-0.1-1.1-0.2 1.6 0.5 3.2 1 4.7 1.5 3 1.2 5.7 2.8 8.2 4.8 -0.7-0.6-1.4-1.3-2.1-1.9 2.8 2.9 5.8 5.6 8.9 8.2 1.9 1 3.8 1.9 5.7 2.9 3.9 1.5 7.9 2.6 12 3.3 2.4 0.3 4.7 0.7 7.1 1 5.2 0.5 10.4 0.9 15.6 1 8.4 0.4 16.9 0.2 25.3 0.2 16.6-0.1 33.2-0.4 49.8 0.1 7.1 0.2 14.1 0.9 21.1 1.7 5.6 0.6 11.1 2.1 16.4 3.8 -0.3-0.1-0.6-0.3-1-0.4 1.3 0.6 2.6 1.3 3.8 1.9 1.8 1.5 3.7 2.9 5.5 4.4 2.4 1.9 5.5 2 8.3 2.3 4.6 0.6 9.6-1.2 14-2.3 5.2-1.4 10.2-3.7 15.2-5.8 5.1-2.1 10.3-4.1 15.5-6 5.2-1.9 10.5-3 15.9-4.1 14.4-2.7 28.7 0.3 42.5 4.1 -0.3-0.1-0.7-0.2-1-0.3 2.8 0.9 5.5 1.8 8.3 2.7 -0.3-0.1-0.7-0.2-1-0.4 5.5 2.2 11 4.2 16.6 6 7.8 2.7 16.5 2.7 24.6 2.9 8.3 0.2 16.7-1.5 24.8-2.9 8.1-1.4 16-3.8 23.9-6 7.6-2.1 15.2-4.4 22.8-6.5 7.3-2 14.6-3.4 22-4.6 7.2-1.2 14.3-1.1 21.6-0.9 7.4 0.2 14.5 2.2 21.6 4.1 -0.3-0.1-0.7-0.2-1-0.3 2.8 1 5.6 2 8.3 3 -0.3-0.1-0.7-0.2-1-0.4 11.7 5.2 23.5 9.6 35.5 13.9 8.7 2.9 17.5 5.6 26.5 7.9 12.4 3.5 25.2 5.6 37.9 7.6 7.9 1.1 15.9 1.8 23.8 2.1 7.5 0.3 15.1 0.2 22.6-0.4 16.8-0.8 32.8-6.1 48.7-11.2 25.7-8.2 51.4-16.6 77.3-24.1 9.7-2.8 19.5-5.3 29.3-7.5 8.8-2 17.8-3.6 26.8-3.3 -0.4-0.1-0.7-0.1-1.1-0.2 1.5 0.3 2.9 0.5 4.4 0.8 -0.4-0.1-0.7-0.1-1.1-0.2 0.7 0.4 1.5 0.8 2.2 1.2 1.2 0.6 1.4 0.3 0.7-0.8 -1.9-2.3-3.9-4.4-6.2-6.3 -4.2-3.9-8.4-7.7-12.6-11.4 -1.5-1.3-3-2.6-4.5-3.9 -0.9-1.1-2.1-1.7-3.4-1.9 -6.1-0.3-11.8 0.5-17.7 1.7 -4 1-8 1.9-12.1 2.6 -6.8 1.3-13.6 3-20.4 4.7 -27.2 6.7-54 15.1-80.9 22.7 -5.2 1.5-10.4 2.8-15.6 4 -2.4 0.5-4.7 1-7.1 1.5 -6 1.3-12.1 2.2-18.2 2.7 -6.7 0.5-13.3 0.7-20 0.5 -11.2 0-22.5-1.7-33.6-3.2 -22.1-2.9-43.8-8.9-65.1-15 -9.7-3-19.4-6.1-29.2-9.1 -8.6-2.7-17.2-4.1-26.1-5.2 -10.5-1.3-21.3-0.3-31.8 0.8 -12.3 1.3-24.4 4.5-36.4 7.4 -11.7 2.8-23.4 5.4-35.4 7.1 -4.8 0.6-9.7 1-14.5 1 -7.7 0.3-15.3-0.8-22.9-1.9 -5.7-1.1-11.4-2.4-17.1-3.9 -8.5-2.1-16.8-3.6-25.4-4.8 -4.8-0.5-9.6-0.9-14.4-1.2 -6.4-0.5-12.6 0.4-19 1.2 -15.8 2.1-30.2 9.8-46 11.9 -4.1 0.6-8.4-0.4-12.3-1.5 -2.6-0.6-5-1.6-7.4-2.8 -4.9-2.2-10.1-3-15.4-3.7 -4.3-0.4-8.6-0.9-12.9-1.4 -7.1-0.9-14.3-1.1-21.4-1.4 -13.4-0.6-26.9-0.5-40.3-0.7 -13.3-0.1-26.6-0.5-39.9-1.6 -4.5-0.4-9-1.2-13.4-2.4 -1.9-0.6-3.8-1.2-5.6-1.8 -3.6-1.4-7.3-2.7-11-3.9 -3.1-1.4-6.3-2.7-9.5-3.9 -4.1-1.6-8.5-2.1-12.7-2.7 -4.1-0.3-8.3-0.3-12.5 0 -2.2 0.3-4.4 0.7-6.6 1 -4.3 0.9-8.6 1.7-12.9 2.6 -7.7 1.5-15.4 3.6-23 5.7 -3.9 1.5-7.7 3.1-11.5 4.8 -5.6 2.4-10.9 5.4-16.2 8.3 -6.1 3.4-12.2 6.8-18.8 9.2 -1.3 0.5-2.7 0.6-4.1 0.2 -3.6-0.3-7.1-1.3-10.6-2.2 -9.3-2.3-18.2-5.7-27.1-9.1 -11.8-4.5-23.7-8.2-35.9-11.5 -32.6-8.8-66.8-8.8-100.2-5.5 0.3 1.3 1.1 2.4 2.2 3.2 3.4 3.4 7 6.7 10.6 9.9 3.6 3.3 7.2 6.4 10.9 9.5C-57.4 223.5-56.2 224.1-54.9 224.3z" style="fill:#D4EDED;opacity:0.1"/><path d="M-58.6 235.9c3.8-0.6 7.5-1.1 11.3-1.7 7.3-0.6 14.6-0.9 21.9-0.8 -0.4 0-0.7 0-1.1 0 6.7 0.1 13.3 0.5 19.9 1.4 6 0.8 12 1.8 18 3.1 10.6 2.1 20.8 5.8 30.9 9.5 15.9 5.8 30.9 14 46.9 19.6 3 1 6.1 1.7 9.2 2.2 3 0.4 5.9 0.4 8.9-0.2 3.3-0.7 6.2-2 8.9-3.9 1.6-1.1 3.3-2.2 4.9-3.4 3.5-2.2 6.9-4.3 10.4-6.5 7.2-4.5 14.9-8.4 22.5-12.3 9.3-4.7 19-8 29-10.6 -0.4 0.1-0.7 0.2-1.1 0.2 5.7-1.2 11.3-2.1 17.1-2.6 3.6-0.3 7.3-0.2 10.9 0.2 3.3 0.4 6.6 1.2 9.7 2.4 -0.9-0.4-1.8-0.8-2.8-1.1 2.3 1.1 4.7 2.1 7 3.2 -7.6-4.7-15.2-9.3-22.7-14 9.9 6.7 19.8 13.3 29.7 20 -0.8-0.6-1.7-1.1-2.5-1.7 2 1.6 4 3.2 6 4.8 1.6 0.8 3.2 1.5 4.7 2.3 2.2 0.8 4.4 1.5 6.7 2.1 6.8 2 14.2 2.4 21.2 3 8.2 0.7 16.5 0.6 24.7 0.6 28.5 0.2 57.3-1.9 85.6 2.8 -0.4-0.1-0.8-0.1-1.1-0.2 2.2 0.5 4.4 1 6.6 1.5 -0.4-0.1-0.7-0.2-1.1-0.2 3.1 0.7 5.9 1.9 8.6 3.5 -0.8-0.6-1.6-1.2-2.5-1.9 2.7 2.1 5.3 4.2 8 6.4 1.4 0.6 2.9 1.1 4.4 1.6 2.8 0.5 5.6 0.5 8.5 0 5-0.4 9.9-2.4 14.6-4 6.9-2.4 13.6-5.3 20.4-8 8.7-3.4 17.6-5.3 26.7-6.4 -0.4 0-0.7 0-1.1 0.1 2.3-0.1 4.5-0.2 6.8-0.3 -0.4 0-0.7 0-1.1 0 2 0 3.9 0.1 5.9 0.1 4.1 0.3 8.1 0.8 12.1 1.6 7 1.2 13.8 3.4 20.6 5.6 5.6 1.8 10.9 4.6 16.6 5.8 2.7 0.6 5.4 1.2 8.1 1.7 5.5 0.9 11 1.2 16.6 1.1 8.3 0.2 16.7-1.5 24.8-3 8.1-1.4 16-3.8 23.9-6 7.6-2.1 15.2-4.3 22.9-6.4 9.6-2.6 19.3-4.3 29.3-5.3 -0.4 0-0.7 0-1.1 0.1 2.8-0.1 5.5-0.2 8.3-0.4 -0.4 0-0.7 0-1.1 0 4.8-0.1 9.6 0.2 14.3 0.9 4.9 0.7 9.7 1.8 14.4 3.3 5 1.6 9.9 3.6 14.6 5.9 4.5 1.8 9.1 3.5 13.6 5.3 9.2 3.4 18.5 6.5 27.9 9.3 8.6 2.6 17.3 4.8 26 6.7 12.2 2.9 24.7 4.4 37.1 5.8 7.7 0.7 15.5 1 23.2 0.9 11 0.1 21.7-1.7 32.5-3.6 6.3-1.5 12.6-3.2 18.7-5.3 5.8-1.8 11.7-3.7 17.5-5.5 14.6-4.7 29.1-9.3 43.7-13.8 23.6-7.3 47.5-14.6 72-17.9 -0.4 0-0.7 0.1-1.1 0.1 1.6-0.1 3.3-0.3 4.9-0.4 2.5-0.2 5 0.1 7.4 0.7 -2.8-1.2-5.6-2.4-8.4-3.6 2.6 1.2 5.2 2.5 7.8 3.7 1.2 0.9 2.5 1.3 3.9 1.2 0.7-1.2-9.8-6.7-8.4-5.9 -5.1-3-10.3-5.9-15.4-8.7 -1.8-1-3.7-1.9-5.5-2.9 -1.2-0.9-2.5-1.3-3.9-1.2 -5.5 0.6-10.8 1.6-16.2 2.8 -3.9 1.1-7.8 2-11.7 2.7 -4.4 1-8.8 2-13.2 3.1 -21.5 5.1-42.7 11.2-64.1 16.8 -11.3 3-22.7 5.7-34.1 8 -5.2 0.9-10.4 1.7-15.7 2.1 -6.3 0.8-12.6 1.3-18.9 1.4 -14.2 0.7-28.5-1.1-42.5-2.8 -21.3-2.5-42.2-7.4-63-12.5 -9.3-2.4-18.6-4.8-27.9-7.4 -4.9-1.5-9.8-2.8-14.7-3.9 -5.5-1.1-11.1-2.3-16.8-2.7 -5.3-0.5-10.6-0.7-15.8-0.5 -5.1 0.1-10.1 0.5-15.2 1.1 -12.4 1.2-24.6 4.1-36.8 6.6 -9.8 2-19.5 3.8-29.4 5.2 -9.9 1.4-19.9 1.6-29.9 1.4 -10.6-0.2-21.2-2.2-31.6-4 -5.7-1.2-11.4-2.2-17.2-3.1 -7.5-1.3-15.2-1.5-22.9-1.8 -4.2-0.1-8.5-0.1-12.7 0.1 -4.1 0.4-8.1 1-12.1 1.8 -7.3 1.2-14.5 3.2-21.7 5.1 -6.1 1.6-12.3 2.4-18.6 2.9 -2.6 0-5.2-0.2-7.7-0.5 -3.5-0.3-6.9-1.5-10.3-2.2 -2.3-0.8-4.6-1.4-7.1-1.8 -2.5-0.8-5.1-1.5-7.7-2.1 -3.5-0.6-6.9-1-10.4-1.3 -4.2-0.2-8.4-0.5-12.5-0.9 -9.7-0.9-19.4-1.2-29.1-1.5 -13.7-0.5-27.4-0.8-41.1-1.3 -10.7-0.4-21.2-1.3-31.8-2.6 -8.6-1.1-16.7-3.7-25-6.1 -3.2-0.5-6.3-1.3-9.4-2.3 -1.6-0.4-3.1-0.7-4.7-1 -3.6-0.7-7.7-1.1-11.5-1 -3.7 0-7.4 0.3-11.1 0.9 -4 0.7-8 1.6-12 2.7 -7.7 2-15.4 4.1-23.2 6.2 -7.9 2.1-15.4 5.5-22.9 8.8 -3.7 1.7-7.4 3.3-11.2 4.8 -1.8 0.7-3.6 1.5-5.3 2.2 -3.2 0.9-6.4 1.7-9.7 2.4 0.4 0 0.7 0 1.1 0 -1.6 0-3.2 0-4.7 0 0.4 0 0.7 0 1.1 0.1 -1.5-0.1-3-0.2-4.5-0.4 0.4 0.1 0.7 0.1 1.1 0.2 -1.2-0.2-2.4-0.5-3.6-0.7 0.4 0.1 0.7 0.2 1.1 0.3 -3.5-1.3-7.1-2.2-10.7-3.3 -1.4-0.4-2.8-0.7-4.2-1.1 -3.3-1-6.5-2-9.9-2.8 -5.8-1.5-11.4-3.5-17.1-5.4 -6.6-2.1-13.4-3.9-20.1-5.7 -16.5-4.3-33.4-6.5-50.4-7.8 -10.1-0.8-20.3-0.3-30.4 0.1 -3.6 0.2-7.3 0.5-10.9 0.7 -7.3 0.2-14.6 0.8-21.8 1.9 0.7 1.2 1.7 2.1 3 2.7 4.2 2.5 8.5 4.9 12.9 7.3 4.3 2.4 8.7 4.7 13.1 6.8C-61.2 235.6-59.9 236-58.6 235.9z" style="fill:#D4EDED;opacity:0.1"/><path d="M-54.3 249.7c7.4-1.5 14.9-2.3 22.4-2.5 10.2-0.7 20.4 0.2 30.6 1.3 14.2 1.4 28 5.6 41.5 10.1 10.9 3.7 21.5 8.6 32 13.3 7.1 3.2 14.3 6.7 21.8 8.8 3 1 6.1 1.7 9.2 2.1 1.5 0.1 3 0.2 4.5 0.2 3.2-0.1 6.2-0.8 9.1-2.1 3.3-1.8 6.4-3.9 9.4-6.3 4.9-3.7 10.5-6.6 15.8-9.6 3.4-2 6.8-3.9 10.3-5.6 5.7-2.9 11.5-5.4 17.4-7.9 9.3-3.9 19.1-6.2 29.1-7.7 -1 0.1-1.9 0.2-2.9 0.3 2.8-0.3 5.7-0.5 8.5-0.8 -1 0.1-2 0.1-2.9 0.2 2.8-0.1 5.6-0.2 8.4-0.3 -1 0-2 0-3 0.1 1.8 0.1 3.5 0.2 5.3 0.3 -5-0.6-9.9-1.3-14.9-1.9 6.6 0.9 13.2 1.8 19.8 2.7 -9.9-1.9-19.9-3.9-29.8-5.8 12.9 3.1 25.8 6.1 38.6 9.2 -9.9-3.2-19.8-6.4-29.7-9.6 11.1 4.1 22.3 8.1 33.4 12.2 -9.8-4-19.6-7.9-29.4-11.9 14.3 7.4 28.8 14.5 43.4 21.3 1.9 0.5 3.7 1.1 5.6 1.6 2.6 0.6 5.2 1.1 7.8 1.5 16.1 2 32.1 2 48.3 2 16.2-0.1 32.4-0.3 48.7 0.1 7.1 0.2 14.1 0.9 21.1 1.7 5.6 0.6 10.9 2.1 16.2 3.9 -1-0.4-2-0.9-3-1.3 2.3 1.1 4.5 2.2 6.7 3.3 -8.4-5.1-16.9-10.2-25.3-15.3 8.4 5.4 16.7 10.8 25.1 16.2 -4.6-3.1-9.2-6.3-13.7-9.4 5.5 3.8 10.9 7.6 16.4 11.4 1.9 1.4 3.9 2.4 6.2 2.9 4.7 1.6 10.1 0.1 14.7-0.9 5.2-1.1 10.2-3.4 15.1-5.3 6.8-2.7 13.6-5.5 20.5-7.9 -0.4 0.1-0.7 0.2-1.1 0.3 5.3-1.6 10.5-2.8 16-3.8 7.6-1.4 15.3-0.9 23-0.2 -1-0.1-2.1-0.3-3.1-0.4 3.1 0.5 6.2 1 9.3 1.4 -1-0.2-2.1-0.4-3.1-0.5 3.2 0.7 6.4 1.3 9.6 2 -1-0.2-2.1-0.4-3.1-0.7 3.3 0.9 6.6 1.7 9.9 2.6 -1-0.3-2.1-0.5-3.1-0.8 3.4 1.1 6.8 2.1 10.2 3.2 -1-0.3-2-0.7-3.1-1 3.5 1.3 7.1 2.6 10.6 3.9 5.2 2.1 10.5 3.5 16 4.3 3.2 0.4 6.3 0.7 9.5 1 5.6 0.3 11.2 0.1 16.7-0.4 8.3-0.5 16.6-2.6 24.7-4.4 10.5-2.4 20.8-5.7 31.1-8.7 -0.4 0.1-0.7 0.2-1.1 0.3 9.8-2.6 19.5-4.9 29.6-6.5 4.8-0.7 9.6-1 14.4-1.1 4.8 0 9.5 0.3 14.3 1 -1-0.2-2.1-0.3-3.1-0.5 3.4 0.6 6.8 1.2 10.2 1.9 -1-0.2-2.1-0.4-3.1-0.6 7.5 1.6 14.7 4.1 21.6 7.4 9.9 4 19.9 7.8 30 11.2 8.7 2.9 17.5 5.5 26.4 7.8 8.5 2.3 18.1 4.4 26.8 5.8 8.1 1.4 16.3 2.5 24.5 3.3 7.8 0.7 15.5 1 23.3 0.8 7.4-0.1 14.8-0.7 22.1-1.8 10.1-1.1 19.8-4.3 29.3-7.4 25.5-8.3 51.1-16.4 76.9-24 10.2-3 20.4-5.7 30.7-8.3 9.7-2.4 19.5-4.3 29.5-4.9 -1 0-2 0-3-0.1 2.4 0.1 4.7 0.1 7.1 0.2 -9-1.4-17.9-2.8-26.9-4.1 9.8 1.9 19.7 3.8 29.5 5.8 1.4 0.6 2.8 0.6 4.2 0.2 -1-1.1-2.3-1.7-3.8-1.9 -5-1.5-10-2.9-15-4.2 -3-0.8-5.9-1.5-8.9-2.3 -3.1-0.9-6.2-1.5-9.4-1.9 -8.6 1.7-17.1 3.9-25.7 5.8 -14.7 3.3-29.2 7.2-43.8 11 -14.4 3.7-28.7 7.3-43.2 10.6 -8.8 2-17.6 3.5-26.5 4.9 -9.1 1.4-18.5 1.3-27.7 1.7 0.4 0 0.8 0 1.2 0 -3.7 0-7.4-0.1-11.2-0.1 0.4 0 0.8 0 1.2 0 -3.8-0.2-7.6-0.4-11.5-0.6 0.4 0 0.8 0.1 1.2 0.1 -3.9-0.3-7.9-0.7-11.8-1 0.4 0 0.8 0.1 1.2 0.1 -11.8-1.4-23.6-3-35.3-4.9 -16.8-2.7-33.5-6.4-50.1-10 -14.1-3.1-28.2-6.5-42.3-9.5 -5.2-0.8-10.5-1.4-15.8-1.6 -4.9-0.2-9.9-0.2-14.8 0.1 -7.2 0.2-14.4 1.4-21.6 2.5 -9.8 1.4-19.5 3.5-29.3 5.3 -7.6 1.4-15.2 2.4-22.9 3.3 -10.3 1.3-20.8 1.3-31.2 1.1 -7.9-0.2-15.8-1.2-23.7-2.1 -11-1.3-22-2.9-33-4.2 -7.1-0.8-14.3-0.7-21.5-0.5 -7.9 0.2-15.7 1.2-23.5 2.7 -5.4 1-10.8 2.2-16.3 3.2 -3.4 0.8-6.9 1.4-10.5 1.5 -3.3 0.6-6.7 0.7-10 0.3 -4.7-0.2-9-1-13.5-2 -2.6-0.5-5.2-1.2-7.8-2.1 -1.7-0.3-3.4-0.6-5-0.9 0.4 0.1 0.8 0.2 1.2 0.3 -1.6-0.4-3.3-0.8-4.9-1.2 -2.4-0.1-4.9-0.4-7.2-0.9 -2.8-0.5-5.3-0.6-8.2-0.8 0.4 0 0.8 0.1 1.2 0.1 -3.9-0.3-7.3-0.5-11.2-0.6 -2.1-0.2-4.1-0.3-6.2-0.5 -4.6-0.3-9.2-0.6-13.8-0.8 -16.1-0.8-32.1-1.3-48.2-2.2 -16-0.9-31.9-2.5-47.7-5.3 -4.8-0.8-9.5-2.3-14.3-3.1 -4.2-0.6-6.7-0.9-11-1.1 0.4 0 0.8 0.1 1.2 0.1 -16.3-2.3-14 0.6-42.7 4.7 -3.7 1.1-7.4 2.2-11.1 3.4 -3.7 1.1-7.5 2.3-11.2 3.5 -3.9 1.4-7.8 3-11.7 4.5 -3.9 1.5-7.9 3-11.8 4.5 -3.9 1.1-7.9 2.2-11.8 3.3 -3.7 0.2-7.4 0.3-11.1 0.4 1 0.1 2 0.3 3 0.4 -2.5-0.5-5-1-7.5-1.5 1 0.3 2 0.5 3 0.8 -3.5-0.8-6.9-1.8-10.3-2.8 -2.5-1.4-5.1-2.4-8-2.8 0.4 0.1 0.8 0.2 1.2 0.3 -6.3-2.2-12.7-3.8-19.2-5.3 -5.4-1.2-10.7-2.8-16.1-4.2 -6.6-1.7-13.3-3.1-20-4.4 -16.1-3.2-32.4-4.6-48.8-5.2 -9.8-0.4-19.6 0.3-29.3 0.9 -3.6 0.3-7.1 0.6-10.7 0.9 -7.3 0.3-14.5 1.1-21.6 2.4 -1.4 0-1.5 0.4-0.2 1 2.9 1.1 5.8 2 8.9 2.6 5.7 1.4 11.5 2.7 17.3 3.9C-60.4 249-57.4 249.5-54.3 249.7z" style="fill:#D4EDED;opacity:0.1"/><path d="M-49.3 224.8c7.4-1.5 14.9-2.3 22.4-2.4 10.2-0.6 20.4 0.3 30.5 1.3 14.3 1.4 28.2 5.7 41.7 10.2 11 3.7 21.6 8.7 32.2 13.5 5.2 2.4 10.5 4.7 15.8 6.8 4.6 1.8 9.3 3 14.1 4 3 0.4 5.9 0.4 8.9 0 1.5-0.4 3-0.9 4.4-1.3 3.4-1.5 6.7-3.4 9.6-5.8 10.5-7.2 21.3-13.8 32.7-19.5 9.2-4.6 18.8-8 28.8-10.6 5.6-1.4 11.3-2 17.1-2.5 1.9 0 3.7-0.1 5.6-0.1 3.5 0 7 0.5 10.4 1.3 -0.3-0.1-0.7-0.2-1-0.3 1.6 0.5 3.2 1 4.7 1.5 3 1.2 5.7 2.8 8.2 4.8 2.1 2.3 4.4 4.4 6.8 6.3 1.9 1.1 3.8 2.1 5.7 3 1.9 0.6 3.8 1.3 5.6 1.9 4.4 1.2 8.9 2 13.4 2.4 5.2 0.5 10.4 0.8 15.6 1 5.6 0.2 11.2 0.2 16.8 0.2 19.5 0.1 38.9-0.5 58.4 0 7.1 0.2 14.1 0.9 21.1 1.7 3.9 0.5 7.8 1.3 11.6 2.3 3.1 0.7 6 1.9 8.7 3.5 -0.3-0.2-0.6-0.3-0.9-0.5 1 0.8 1.9 1.5 2.9 2.3 1.1 1 2.3 1.9 3.5 2.7 1.1 0.4 2.3 0.9 3.4 1.3 2.8 0.6 5.6 0.7 8.5 0.3 1.6-0.3 3.1-0.6 4.7-0.9 3.4-0.8 6.7-1.8 9.9-3.1 5.2-1.8 10.2-4.1 15.3-6.3 5.1-2.1 10.3-3.9 15.6-5.6 5.3-1.7 10.7-2.4 16.2-3.1 12.5-1.6 25.1 1.6 36.9 4.9 2.4 0.8 4.8 1.6 7.2 2.4 5.1 2.1 10.3 4 15.6 5.7 7.9 2.7 16.5 2.8 24.7 2.9 8.3 0.2 16.7-1.5 24.8-3 8.1-1.5 16-3.9 23.9-6.1 7.6-2.1 15.2-4.4 22.8-6.5 7.3-2 14.6-3.4 22-4.6 7.2-1.2 14.3-1.1 21.5-0.9 10 0.3 19.6 3.4 28.8 6.8 -0.3-0.1-0.6-0.3-1-0.4 7.2 3.4 14.5 6.5 22 9.1 8.8 3.3 17.8 6.4 26.8 9.1 8.6 2.6 17.3 4.8 26 6.8 12.2 2.9 24.7 4.4 37.1 5.8 7.7 0.7 15.5 1 23.2 0.9 7.4-0.1 14.7-0.7 22-1.7 7-1 13.9-2.5 20.7-4.6 2.8-0.9 5.7-1.8 8.5-2.7 5.8-1.9 11.6-3.8 17.4-5.6 25.3-8.2 50.7-16.3 76.3-23.4 9.2-2.6 18.5-4.7 27.9-6.6 3.8-0.7 7.6-1.3 11.4-1.7 4.2-0.6 8.1-0.4 12.3 0.4 -0.3-0.1-0.7-0.2-1-0.3 0.7 0.4 1.5 0.8 2.2 1.2 1.1 0.6 1.4 0.4 0.8-0.7 -1.6-2.4-3.5-4.5-5.6-6.5 -3.8-4-7.6-7.9-11.5-11.8 -1.4-1.3-2.8-2.7-4.1-4 -0.8-1.1-1.9-1.8-3.2-2 -2.5-0.4-5-0.5-7.5-0.2 -3.6 0.2-7.1 0.7-10.5 1.6 -4 1-8.1 1.8-12.2 2.5 -6.8 1.3-13.6 3-20.4 4.7 -27 6.6-53.6 15.1-80.3 23 -5.1 1.5-10.2 2.9-15.3 4.3 -2.3 0.6-4.6 1.2-6.9 1.7 -5.9 1.5-11.9 2.5-18 3.2 -6.6 0.7-13.2 1-19.9 0.8 -11.2 0.2-22.4-1.4-33.5-2.8 -22.2-2.8-43.9-8.9-65.3-15.2 -9.8-3.1-19.6-6.3-29.4-9.5 -3-0.9-6.1-1.8-9.1-2.7 -5.8-1.5-11.6-2.5-17.5-3.2 -10.6-1.5-21.6-0.6-32.2 0.4 -12.2 1.2-24.3 4.4-36.2 7.4 -11.6 2.9-23.1 5.7-34.8 7.7 -4.7 0.7-9.5 1.2-14.3 1.4 -7.7 0.5-15.2-0.5-22.8-1.6 -5.8-1.1-11.5-2.5-17.2-4.1 -3-0.8-6.1-1.6-9.1-2.3 -5.6-1.3-11.2-2.3-16.8-3 -4.8-0.6-9.7-1.1-14.6-1.5 -6.5-0.6-12.7 0.2-19.1 1 -9 1.1-17.7 4.1-26.2 7 -6.2 2.2-12.3 4.5-18.8 6.1 -4.1 1-8.1 0.4-12.1-0.6 -2.6-0.7-5.1-1.7-7.4-3.1 -5-2.5-10.2-3.5-15.6-4.4 -4.3-0.5-8.7-1-13-1.6 -7.1-0.9-14.3-1.2-21.4-1.5 -13.4-0.6-26.8-0.5-40.2-0.5 -13.3 0-26.5-0.2-39.7-1.2 -4.5-0.4-9-1.1-13.4-2.1 -1.9-0.6-3.7-1.2-5.6-1.7 -3.7-1.4-7.4-2.8-11.2-4.1 -3.2-1.6-6.5-3.1-9.9-4.5 -4.1-1.8-8.7-2.4-13.1-3.3 -4.3-0.4-8.6-0.5-12.9-0.3 -2.3 0.3-4.5 0.6-6.8 0.9 -4.4 0.8-8.7 1.7-13.1 2.5 -7.7 1.4-15.4 3.5-23 5.5 -3.9 1.5-7.7 3.1-11.5 4.8 -5.5 2.4-10.7 5.4-15.9 8.3 -6 3.4-11.8 7.1-17.7 10.5 -4.2 2.5-10 0.3-14.4-0.7 -3.3-1-6.6-2-9.9-3 -5.9-1.8-11.5-4.2-17.3-6.5 -11.9-4.8-23.9-8.8-36.2-12.3 -15.3-4.4-31-6.5-46.7-8 -7.1-0.5-14.3-0.6-21.5-0.5 -3.7 0.1-7.4 0.3-11.1 0.4 -7.2 0-14.3 0.5-21.4 1.6 0.2 1.3 0.8 2.4 1.9 3.3 3.1 3.5 6.3 7 9.5 10.3 3.2 3.4 6.5 6.8 9.9 10C-51.7 223.8-50.6 224.5-49.3 224.8z" style="fill:#D4EDED;opacity:0.1"/><path d="M-56 218.1c7.7-0.5 15.4-1.1 23.1-1.6 7-0.3 13.9-0.2 20.9 0.3 12.2 0.6 24.2 3.4 36 6.5 -0.3-0.1-0.6-0.2-0.9-0.3 2.9 0.9 5.8 1.8 8.8 2.7 -0.3-0.1-0.6-0.2-0.9-0.3 2.8 1 5.6 1.9 8.3 2.9 -0.3-0.1-0.6-0.2-0.8-0.3 8.9 3.4 17.6 7.1 26.3 11 7.4 3.4 14.7 6.9 22.3 9.9 3.1 1.2 6.3 2.2 9.5 3.1 2.9 0.8 5.9 1.2 8.9 1.2 7 0.5 12.8-3.6 18.3-7.3 7.2-4.8 14.4-9.6 21.8-14.1 7.4-4.4 15.1-8.1 23-11.5 7.4-3.1 15.1-5 22.9-6.7 7.4-1.5 14.9-1.6 22.4-1.1 -0.3 0-0.6-0.1-0.9-0.1 3.4 0.5 6.6 1.3 9.8 2.6 3 1.3 5.7 3 8.2 5 -0.5-0.5-1.1-1-1.6-1.5 1.6 1.6 3.3 3.3 4.9 4.9 2.2 2.6 4.9 4.5 8.1 5.7 3.8 2.1 8.5 2.8 12.6 3.8 2.4 0.3 4.7 0.7 7.1 1 5.2 0.5 10.4 0.8 15.7 0.9 8.4 0.4 16.9 0.1 25.4 0.1 16.6-0.1 33.2-0.5 49.9 0 7.1 0.2 14.1 0.8 21.1 1.7 5.7 0.7 11.1 2.1 16.5 3.8 -0.3-0.1-0.6-0.2-0.8-0.3 2.5 1 4.8 2.4 6.7 4.3 3 2.5 3 2.4 6.7 3.9 1.3 0.2 2.6 0.3 3.9 0.5 3.1 0.1 6.1-0.2 9-1 5.2-1 10.1-3.2 15-5.1 5.2-2.1 10.4-4.4 15.6-6.6 5.2-2.1 10.5-3.7 15.8-5.2 5.4-1.5 11.1-1.8 16.6-2 6.1-0.3 12 0.8 17.9 1.9 -0.3-0.1-0.6-0.1-0.9-0.2 2.5 0.6 5 1.1 7.4 1.7 -0.3-0.1-0.6-0.1-0.9-0.2 7.4 2.1 14.6 4.6 21.8 7.4 2.9 1 5.8 2.1 8.7 3.1 5.3 1.5 10.7 2.5 16.3 2.8 8.2 1 16.7-0.3 24.9-1.4 8.2-1 16.3-3.4 24.3-5.5 7.8-2.1 15.5-4.5 23.2-6.8 7.4-2.2 14.8-3.9 22.3-5.6 7.2-1.5 14.4-2 21.7-2.3 7.3-0.3 14.4 1 21.5 2.4 -0.3-0.1-0.6-0.1-0.9-0.2 5 1.2 9.8 2.8 14.5 4.7 6.9 3.3 13.9 6.3 21 8.9 17.4 7 35.4 11.9 53.5 16.3 8.3 1.8 16.6 3.3 25 4.5 11.7 1.8 23.5 2.1 35.3 2.2 7.4-0.1 14.7-0.7 22-1.8 10-1.1 19.7-4.3 29.2-7.4 26-8.4 51.8-17.1 78-24.9 12.4-3.7 24.8-7 37.4-9.9 4.1-0.9 8.1-1.7 12.3-2.3 1.8-0.3 3.7-0.5 5.5-0.8 3-0.4 6-0.5 9.1-0.2 -0.3 0-0.6-0.1-0.9-0.1 2.1 0 3.9 0.6 5.6 1.8 0.9 0.5 1.2 0.3 0.8-0.7 -1.2-2-2.7-3.8-4.4-5.4 -3-3.3-6.1-6.6-9.2-9.8 -1.3-1.4-3.8-4.5-6.1-4.9 -2.4-0.5-4.8-0.7-7.2-0.6 -5.6-0.1-11.1 1.3-16.5 2.4 -4.2 0.7-8.3 1.5-12.4 2.4 -7.2 1.5-14.3 3.4-21.4 5.3 -30.4 8-60 18.4-90 27.4 -5.4 1.6-10.9 3-16.5 4.1 -9.8 2.3-20.1 2.3-30.1 2.6 -7.4-0.1-14.8-0.5-22.2-1.3 -12.4-1-24.5-3.5-36.7-6 -23.1-4.6-45.4-12.6-67.5-20.5 -3.1-1.1-6.2-2.4-9.4-3.3 -2.8-0.7-5.6-1.5-8.4-2.2 -5.4-1.2-10.8-2-16.3-2.5 -5.2-0.4-10.5-0.4-15.7-0.1 -7.6 0.2-15.1 1.7-22.5 3.1 -12.2 2.3-24.1 6.1-36.1 9.4 -4.8 1.3-9.6 2.5-14.5 3.6 -7.4 1.7-14.8 2.5-22.3 3.1 -7.8 0.7-15.4-0.4-23.1-1.6 -2.7-0.6-5.4-1.3-8.1-1.9 -5.7-1.7-11.4-3.5-17.1-5.2 -11.7-3.6-24.1-5.1-36.3-6 -2.2 0.1-4.3 0.2-6.5 0.3 -4.1 0.2-8.1 0.8-12 1.7 -5.5 1-10.8 2.9-16.1 4.7 -7.6 2.6-14.7 6.2-22.3 8.7 -3.5 1.1-6.8 1.5-10.4 1.6 -3.3 0.1-6.6-1.5-9.6-2.6 0.3 0.1 0.5 0.3 0.8 0.4 -2.4-1.5-4.9-2.8-7.5-3.9 -3.7-1.8-7.4-2.3-11.4-3.1 -6.4-1.2-13-1.8-19.4-2.4 -7.4-0.7-14.9-0.8-22.4-1 -16.5-0.4-33 0-49.5-0.1 -8 0-15.9-0.4-23.9-0.8 -2.4-0.3-4.8-0.5-7.2-0.8 -4.2-0.5-8.2-1.6-12.1-3.1 0.3 0.1 0.5 0.2 0.8 0.3 -1.9-0.8-3.8-1.7-5.7-2.5 0.3 0.1 0.5 0.2 0.8 0.4 -1.7-0.8-3.5-1.7-5.2-2.5 -3.1-2-6.3-3.8-9.6-5.6 -1.8-0.7-3.6-1.4-5.4-2.2 -2.1-0.8-4.3-1.4-6.5-1.9 -2-0.3-4-0.6-6-0.8 -4.3-0.6-8.5-0.5-12.8 0.2 -6.4 0.5-12.8 1.9-19 3.1 -5.7 1.2-11.3 2.6-16.9 4.2 -2 0.8-3.9 1.6-5.9 2.4 -3.9 1.6-7.7 3.4-11.4 5.5 -11.2 5.8-21 13.7-31.9 20 -2.5 1.4-5.2 1.1-7.9 0.9 -1.2-0.2-2.4-0.4-3.6-0.7 -2.9-0.7-5.8-1.5-8.6-2.4 -5.5-1.7-10.9-3.6-16.2-5.9 -6.1-2.6-12.2-5.1-18.4-7.5 -15.5-6.2-31.5-10.6-47.9-13.9 -9.8-2-19.7-2.7-29.7-3.3 -7.3-0.3-14.6-0.2-21.8 0.2 -7.6 0.6-15.3 0.7-22.9 0.2 0.1 1.1 0.6 2.1 1.5 2.9 2.6 3 5.2 5.9 8 8.7 2.7 2.9 5.5 5.7 8.3 8.4C-58 217.5-57.1 218-56 218.1z" style="fill:#D4EDED;opacity:0.1"/><path d="M-53.9 216.6c7-2.1 14.2-3.1 21.6-3.2 7-0.3 14-0.1 20.9 0.5 -0.3 0-0.5 0-0.8-0.1 3.5 0.4 7 0.8 10.4 1.2 -0.2 0-0.5-0.1-0.8-0.1 6 0.9 12 2 17.9 3.5 5.4 1.4 10.8 2.9 16.1 4.7 11.5 3.7 22.6 8.9 33.5 14 7.1 3.3 14.1 6.8 21.3 9.7 1.9 0.7 3.7 1.4 5.6 2 1.5 0.4 3.1 0.9 4.6 1.3 2.9 0.8 5.8 1.2 8.9 1.2 7.1 0.4 13-4 18.5-7.8 3.6-2.5 7.3-5.1 10.9-7.6 5.6-3.8 11.3-7.3 17.1-10.8 7.3-4.3 15.2-7.5 23.1-10.6 9-3.5 18.9-4.9 28.5-5.7 -0.3 0-0.5 0-0.8 0 2.2 0 4.3 0 6.5 0 -0.3 0-0.5 0-0.8 0 3.6 0 7.1 0.6 10.5 1.7 5 1.2 8.9 4.1 12.8 7.2 -0.4-0.4-0.8-0.7-1.2-1.1 1.4 1.5 2.9 3.1 4.3 4.6 1.1 1.1 2.2 2.2 3.3 3.4 3 2.2 6.2 3.8 9.8 4.7 2.2 0.8 4.6 1.3 7 1.6 2.4 0.3 4.7 0.6 7.1 0.9 5.2 0.5 10.5 0.7 15.8 0.8 17 0.6 34.1-0.2 51.2-0.4 15.2-0.2 30.3 0.1 45.3 1.9 -0.2 0-0.5-0.1-0.7-0.1 2 0.3 4 0.7 6 1 3.6 0.7 7.1 1.7 10.5 2.9 3.6 1.2 6.3 4.4 9.1 6.8 1.9 1.7 5.5 1.8 7.8 2.1 4.6 0.6 9.6-1.3 13.9-2.6 1.7-0.7 3.4-1.3 5.2-2 3.5-1.4 7-2.9 10.5-4.5 5.3-2.4 10.5-4.6 15.9-6.7 5.2-2 10.6-3.2 16-4.3 5.7-1.1 11.3-0.9 17.1-0.7 -0.3 0-0.5 0-0.8-0.1 1.9 0.2 3.9 0.5 5.8 0.7 4.3 0.7 8.5 1.7 12.7 2.8 7.4 1.8 14.5 4.9 21.6 7.8 5 2.1 11.1 4.3 16.6 4.9 5.5 0.9 10.9 1.3 16.5 1.1 5.6-0.2 11.1-0.7 16.7-1.7 8.3-1.1 16.4-3.6 24.4-5.8 7.8-2.1 15.5-4.7 23.3-7 7.4-2.2 14.8-4 22.3-5.7 4.8-1 9.6-1.6 14.5-2 4.8-0.4 9.6-0.4 14.4 0 -0.3 0-0.5 0-0.8-0.1 4.9 0.4 9.6 1.2 14.3 2.4 4.9 1.3 9.8 2.9 14.4 5 6.8 3.5 13.7 6.5 20.8 9.2 12.9 5.4 26.3 9.2 39.7 13 4.5 1.2 9 2.3 13.6 3.3 12.2 3 24.7 4.4 37.1 5.8 7.8 0.7 15.5 0.9 23.3 0.8 11 0.1 21.9-1.9 32.7-4 6.4-1.6 12.6-3.5 18.8-5.7 8.8-3 17.6-6 26.5-9 14.4-4.9 28.9-9.5 43.4-14 12.9-4 25.8-7.6 38.9-10.9 9.7-2.4 19.6-4.2 29.6-4.9 -0.3 0-0.5 0-0.8 0 1.4 0.1 2.8 0.2 4.1 0.3 2.1 0.1 3.9 0.7 5.6 1.9 0.8 0.3 1 0.1 0.8-0.7 -0.7-1.6-1.7-3-2.9-4.3 -2.1-2.6-4.2-5.1-6.4-7.6 -1.1-1.4-2.3-2.6-3.7-3.6 -2.2-0.8-4.5-1.2-6.9-1.2 -1.8-0.1-3.6-0.1-5.4-0.1 -3.9 0.5-7.8 1-11.7 1.8 -4.2 0.6-8.3 1.4-12.4 2.3 -9.8 2-19.5 4.8-29.1 7.5 -11 3.1-21.9 6.6-32.7 10.1 -11.4 3.6-22.7 7.5-34 11.4 -5.5 2-11 3.9-16.6 5.7 -5.6 1.9-11.3 3.6-17.1 5 -6.7 1.5-13.4 2.4-20.2 2.9 -7.3 0.5-14.5 0.6-21.8 0.3 -7.8-0.4-15.6-1.1-23.4-2.2 -12.8-1.5-25.4-4.6-37.8-7.6 0.2 0.1 0.5 0.1 0.7 0.2 -4.4-1.2-8.8-2.5-13.2-3.7 -9.2-2.7-18.2-5.8-27.2-9.3 -7.4-2.9-14.8-5.9-22.2-9 -5.2-2-10.5-3.5-16-4.7 -5.1-1.3-10.4-1.5-15.6-1.9 -7.8-0.6-15.7 0.3-23.4 1.3 -7.4 0.9-14.8 3-22 5 -9.9 2.6-19.6 5.9-29.4 8.8 -7.5 2.2-15.1 3.7-22.8 5.1 -5.2 0.8-10.4 1.2-15.6 1.3 -5.3 0-10.5-0.5-15.7-1.5 0.2 0.1 0.5 0.1 0.7 0.2 -2.6-0.7-5.3-1.3-7.9-2 -5.5-1.9-11-3.8-16.4-5.9 -7.3-2.7-15-4.3-22.6-5.8 -3.9-0.8-9.3-1.9-13.3-1.8 -2.1 0-4.2 0.1-6.3 0.1 -4 0-8 0.5-11.9 1.4 -10.9 1.9-21.1 6.8-31 11.5 -4.4 2.1-8.8 3.9-13.4 5.5 -2.4 0.7-4.9 1.1-7.4 1.3 -2.2 0-4.3-0.4-6.4-1.1 0.2 0.1 0.5 0.2 0.7 0.2 -1-0.5-2.1-1-3.1-1.5 -2.2-1.6-4.4-3-6.8-4.4 -3.3-2-7-2.8-10.7-3.5 -4.4-0.8-8-1.4-12.4-2.1 -7-1.1-14.2-1.3-21.3-1.6 -16.4-0.7-32.9-0.1-49.3 0.1 -8.3 0.1-16.6 0.1-24.9-0.1 -2.6-0.1-5.2-0.2-7.9-0.3 -4.8-0.2-9.5-0.8-14.2-1.7 0.2 0.1 0.5 0.1 0.7 0.2 -3.7-0.8-7.2-2.1-10.5-3.8 -3.2-1.7-6.2-3.8-9-6.3 -2.9-2.4-6-4.3-9.4-5.9 -3.4-1.8-7.1-3-10.9-3.6 -6.5-1.6-13.1-0.9-19.7-0.5 -8.1 0.6-16 2.6-23.9 4.5 -7.9 1.9-15.3 5.7-22.4 9.5 -7.7 4.2-14.8 9.4-21.8 14.7 -5 3.8-9.8 7.9-15.4 10.8 -2.1 0.7-4.2 0.9-6.4 0.6 -4.2 0-8.5-1.7-12.4-2.9 0.2 0.1 0.5 0.2 0.7 0.2 -3.6-1.2-7.1-2.5-10.6-3.8 -1.7-0.8-3.5-1.6-5.2-2.3 -3.8-1.8-7.7-3.5-11.5-5.2 -11.6-5.2-23.4-9.7-35.5-13.7 -5.7-1.7-11.4-3.3-17.2-4.5 -6.1-1.5-13.5-2.8-19.7-3.3 -6.9-0.8-13.8-1.3-20.8-1.3 -10.9-0.4-22.1 0.9-32.9 1.8 -0.1 0.9 0.2 1.7 0.9 2.4 1.8 2.4 3.7 4.7 5.7 7 1.9 2.3 4 4.5 6.1 6.7C-55.5 216.2-54.8 216.6-53.9 216.6z" style="fill:#D4EDED;opacity:0.1"/><path d="M-53.4 235.1c7.3-1.7 14.7-2.6 22.2-2.6 7-0.3 13.9-0.2 20.9 0.3 14.9 0.7 29.6 4.4 43.9 8.6 -0.4-0.1-0.8-0.3-1.2-0.4 7.6 2.6 15.1 5.3 22.6 8.3 8 3.2 15.9 7 23.8 10.5 6.5 2.9 13.1 5.4 19.9 7.3 3 0.7 6 1.1 9 1.1 3.1 0 6.1-0.6 9-1.9 1.5-0.9 3.1-1.7 4.6-2.6 3.3-2.4 6.6-4.6 10-6.8 7-4.6 14.3-8.7 21.7-12.6 7.5-3.9 15.2-7.1 23.1-10 7.4-2.7 15.3-4.2 23-5.3 -0.4 0-0.8 0.1-1.3 0.1 2.3-0.2 4.6-0.4 6.9-0.6 -0.4 0-0.8 0-1.3 0.1 2.3 0 4.5-0.1 6.8-0.1 -0.4 0-0.8 0-1.3 0 3.5 0 6.9 0.5 10.3 1.3 3.2 0.8 6.1 2 8.9 3.6 -5.7-3.9-11.4-7.9-17-11.8 8 5.9 16 11.8 24 17.8 -0.9-0.7-1.8-1.4-2.7-2.2 3.4 3.7 7.4 6.4 12.1 8 1.9 0.6 3.8 1.1 5.7 1.7 4.5 1.1 9 1.9 13.7 2.3 7.9 1 16 1 23.9 1.2 8.5 0.2 17.1 0 25.6 0 13.7-0.1 27.5-0.2 41.2 0.2 7.1 0.2 14.1 0.9 21.1 1.7 5.6 0.7 11 2.1 16.3 3.9 -0.4-0.2-0.8-0.3-1.2-0.5 2.5 0.9 4.7 2.3 6.6 4.3 2.8 2.4 3.6 2.7 7.2 3.9 1.4 0.1 2.7 0.3 4.1 0.4 3.1-0.1 6.2-0.5 9.3-1.3 5.1-1 10.2-3.3 15-5.2 3.4-1.4 6.8-2.8 10.2-4.1 5.1-2 10.2-3.8 15.5-5.4 5.3-1.6 10.7-2.3 16.2-2.9 5.8-0.7 11.6-0.1 17.4 0.5 -0.4-0.1-0.8-0.1-1.3-0.2 2.5 0.4 5 0.8 7.5 1.2 -0.4-0.1-0.8-0.1-1.3-0.2 7 1.5 13.8 3.4 20.6 5.6 2.5 1 5.1 1.9 7.6 2.9 3 1.1 6.1 2.1 9.1 3.1 2.7 0.6 5.4 1.2 8.2 1.7 5.5 0.8 11 1.2 16.6 1 8.3 0.1 16.7-1.6 24.8-3 8.1-1.5 16-3.8 23.9-6 7.6-2.1 15.2-4.3 22.8-6.4 7.3-2 14.6-3.3 22-4.5 4.8-0.7 9.6-1 14.4-1.1 4.8 0 9.6 0.3 14.3 1 -0.4-0.1-0.8-0.1-1.3-0.2 2.8 0.5 5.6 1.1 8.4 1.6 -0.4-0.1-0.8-0.2-1.2-0.2 4.9 1.1 9.8 2.6 14.5 4.5 7.3 3.3 14.7 6.3 22.2 9 8.8 3.3 17.8 6.3 26.8 9 12.7 4 25.7 6.6 38.7 9.2 8.1 1.5 16.3 2.6 24.5 3.3 7.7 0.7 15.5 1 23.2 0.9 7.4-0.1 14.7-0.7 22-1.7 10-1.1 19.7-4.3 29.2-7.3 25.9-8.3 51.8-16.6 77.9-24.3 12.4-3.7 24.9-7 37.5-9.9 8.8-2 17.7-3.5 26.7-3.2 -0.4 0-0.8-0.1-1.3-0.1 1.1 0.2 2.2 0.4 3.3 0.7 -1.1-0.5-2.1-0.9-3.2-1.4 0.8 0.4 1.5 0.8 2.3 1.1 1.3 1.1 2.8 1.6 4.4 1.7 0.7-1.2-11.1-8.4-9.4-7.3 -5.7-3.7-11.5-7.4-17.3-11 -2.1-1.2-4.1-2.5-6.2-3.7 -1.3-1.1-2.8-1.6-4.4-1.7 -5.8 0.6-11.3 1.8-17 3.2 -3.9 1.2-7.9 2.1-11.9 2.9 -6.8 1.4-13.6 3.1-20.4 4.8 -27.1 6.6-54 14.3-81.3 20.2 -10.4 2.2-20.9 3.1-31.5 4.2 -6.3 0.4-12.6 0.6-18.8 0.4 -10.6 0-21.3-1.5-31.8-2.7 -21.3-2.5-42.3-7.4-63.2-12.3 -9.6-2.4-19.1-4.8-28.6-7.3 -5.1-1.2-10.2-2.5-15.3-3.7 -5.9-1.2-11.8-2-17.9-2.4 -10.7-1.1-21.6 0-32.3 1.1 -12.3 1.3-24.5 4-36.7 6.3 -11.7 2.3-23.4 4.1-35.3 5.2 -12.2 1.2-24.4 0.4-36.5-0.8 -5.5-0.7-11-1.6-16.4-2.5 -3-0.5-6-1-9.1-1.5 -5.8-1-11.7-1.7-17.6-2.2 -5.2-0.3-10.3-0.5-15.5-0.5 -2.3 0-4.6 0-6.9 0 -4.2 0-8.5 0.3-12.6 1.1 -15.9 2.1-31.3 8.2-47.5 7.5 -4.3-0.2-8.5-1.4-12.7-2.1 -2.4-0.7-4.8-1.3-7.3-1.7 -1.3-0.4-2.7-0.8-4-1.1 -3.2-0.8-6.4-1.4-9.7-1.7 -4.1-0.5-8.3-0.7-12.4-0.9 -2.1-0.2-4.2-0.4-6.4-0.6 -4.6-0.4-9.3-0.7-13.9-0.9 -13.1-0.8-26.2-1-39.3-1.4 -13.4-0.4-26.8-1.1-40.1-2.3 -4.8-0.5-9.6-1.2-14.4-2.1 -6.1-1-12.1-3.1-18.2-4.6 -3.9-0.5-7.8-1.2-11.7-2.3 -5.6-1.3-11.2-1.2-16.9-1.2 -10.4 0.1-20.5 3.7-30.4 6.3 -7.7 2-15.3 4.1-22.9 6.2 -3.9 1.4-7.7 2.9-11.5 4.5 -5.4 2.2-10.7 4.3-16.1 6.3 -2.9 1.3-6 2.2-9.1 2.6 -1.3 0.2-2.6 0.4-4 0.7 -1.8 0-3.5-0.1-5.2-0.4 -1.4-0.1-2.8-0.5-4-1.2 -1-0.2-2-0.4-3-0.6 -2.5-0.9-5-1.6-7.6-2.1 -3.3-1-6.7-1.9-10.1-2.7 -6-1.5-11.8-3.5-17.7-5.4 -12.1-3.8-24.5-6.7-36.9-9.1 -15.3-3-30.9-3.9-46.5-4.3 -7.1 0-14.1 0.2-21.1 0.6 -3.7 0.2-7.3 0.5-11 0.7 -7.2-0.1-14.3 0.6-21.3 1.9 0.8 1.4 1.9 2.5 3.4 3.2 4.7 3.3 9.6 6.4 14.4 9.5 4.8 3.1 9.7 6.2 14.7 9.1C-56.5 234.5-55 235.1-53.4 235.1z" style="fill:#D4EDED;opacity:0.1"/><path d="M-59.1 222.6c7.7-0.7 15.4-1.3 23-1.8 10.2-0.7 20.4 0.3 30.6 1.3 -0.3 0-0.6-0.1-0.9-0.1 3.4 0.5 6.7 1.1 10.1 1.6 -0.3 0-0.6-0.1-0.9-0.1 5.7 1.1 11.4 2.4 17.1 3.9 5.2 1.5 10.3 3.1 15.4 4.9 9 3.1 17.6 7 26.3 10.9 5.7 2.6 11.4 5.5 17.2 7.8 3.3 1.4 6.6 2.6 10 3.8 4.4 1.6 8.9 2.2 13.5 2.6 7 0.5 12.8-3.6 18.3-7.3 9-6 18.2-11.7 27.6-17.1 7.4-4.2 15.3-7.4 23.2-10.4 9-3.5 18.9-5 28.5-5.8 -0.3 0-0.6 0-0.9 0 2.2 0 4.4-0.1 6.5-0.1 -0.3 0-0.6 0-0.9 0 3.5 0 7 0.4 10.4 1.3 3.2 0.8 6.2 2 9 3.7 -0.6-0.4-1.2-0.9-1.9-1.3 1.9 1.4 3.8 2.7 5.7 4.1 -0.6-0.5-1.2-0.9-1.8-1.4 2.7 2.7 5.5 5.3 8.4 7.9 2.2 2 8.4 3.8 11 4.7 6.6 2.3 14.1 2.5 21 3.1 8.2 0.7 16.6 0.5 24.8 0.5 28.5 0.1 57.4-2.1 85.6 2.6 -0.3-0.1-0.6-0.1-0.9-0.2 2.2 0.5 4.3 1 6.5 1.4 -0.3-0.1-0.6-0.1-0.9-0.2 3.1 0.7 6 1.8 8.7 3.5 2.4 1.2 3.7 3.8 6.3 4.8 1.1 0.4 2.2 0.9 3.3 1.3 2.7 0.6 5.5 0.7 8.3 0.3 1.6-0.3 3.1-0.6 4.7-0.8 3.4-0.8 6.7-1.8 9.9-3 3.5-1.3 6.9-2.6 10.3-4.1 5.2-2.2 10.4-4.3 15.7-6.3 5.2-1.9 10.6-3.1 16-4.2 5.6-1.1 11.3-1 17-0.9 -0.3 0-0.6-0.1-0.9-0.1 6.3 0.7 12.4 1.8 18.6 3.2 7.4 1.7 14.6 4.6 21.7 7.3 7 2.7 9.5 3.2 16.8 4.8 5.5 0.9 11 1.3 16.5 1.2 5.6-0.1 11.1-0.6 16.6-1.5 8.2-1 16.3-3.3 24.3-5.4 7.8-2 15.5-4.5 23.3-6.7 7.4-2.1 14.8-3.9 22.3-5.5 4.8-0.9 9.6-1.6 14.5-2 4.8-0.4 9.6-0.4 14.4-0.1 -0.3 0-0.6 0-0.9-0.1 2.7 0.3 5.4 0.6 8.1 0.9 -0.3 0-0.6-0.1-0.9-0.1 4.9 0.7 9.7 1.9 14.4 3.4 5 1.6 9.9 3.7 14.6 6 8.9 3.7 17.9 7.1 27 10.3 8.9 3.2 18.1 5.6 27.2 8.2 8.4 2.2 16.9 4.1 25.5 5.6 12 2.4 24.1 3.3 36.2 4 7.6 0.3 15.1 0.2 22.6-0.4 10.8-0.5 21.2-3.1 31.6-5.8 5.8-1.8 11.5-3.7 17.3-5.6 5.9-1.9 11.8-3.9 17.7-5.8 14.4-4.7 28.9-9.3 43.4-13.7 12.9-3.9 25.8-7.6 38.9-10.8 9.7-2.4 19.6-4.2 29.5-5 -0.3 0-0.6 0-0.9 0 1.7 0.1 3.4 0.1 5 0.2 -0.3 0-0.6 0-0.9 0 2.1 0 3.9 0.6 5.6 1.8 1 0.4 1.2 0.1 0.7-0.8 -1.4-1.9-3.1-3.6-4.9-5.1 -3.3-3-6.7-6-10.2-8.9 -1.6-1.3-4.2-4.1-6.6-4.3 -3.9-0.4-7.6-0.2-11.6 0.1 -3.9 0.6-7.7 1.4-11.5 2.3 -4.2 0.7-8.3 1.5-12.4 2.5 -9.8 2.1-19.5 4.8-29.2 7.4 -13.8 3.8-27.6 8-41.3 12.1 -11.3 3.4-22.6 6.9-33.9 10.2 -5.1 1.5-10.3 2.8-15.5 3.9 -3.1 0.6-6.2 1.2-9.3 1.9 -6.6 1.1-13.2 1.7-19.8 1.9 -7.2 0.2-14.3 0.1-21.5-0.4 -7.8-0.6-15.5-1.4-23.2-2.5 -22-2.8-43.5-8.9-64.7-15.2 0.3 0.1 0.6 0.2 0.9 0.3 -12.2-4-24.4-8.3-36.6-12.2 -5.3-1.7-10.8-2.4-16.3-3.4 -15.5-2.6-31.4-0.4-46.7 2.5 -7.4 1.4-14.6 3.4-21.9 5.2 -9.7 2.5-19.5 4.9-29.3 6.9 -7.5 1.5-15 2.1-22.6 2.6 -10.6 0.6-21-1.4-31.3-3.7 -2.5-0.7-5-1.4-7.6-2.1 -5.4-1.7-10.9-3.1-16.5-4.2 -2.8-0.6-5.7-1.1-8.6-1.5 -4.8-0.6-9.1-1.1-13.9-1.6 -8.2-0.8-16.3 0.4-24.3 2 -12 2.3-23.4 7.5-35.1 11.2 -3.7 1.2-7.6 1.6-11.4 1.7 -4.6 0.2-8.9-1.4-13.2-2.9 0.3 0.1 0.6 0.2 0.8 0.3 -4-2-8.4-4.3-12.9-5.1 -13.1-2.3-26.3-3.4-39.6-3.9 -16.3-0.7-32.7-0.4-49.1-0.5 -8.2-0.1-16.4-0.3-24.6-0.7 -2.6-0.2-5.1-0.4-7.7-0.6 -4.6-0.4-9.2-1.1-13.8-2.3 0.3 0.1 0.6 0.2 0.9 0.3 -2.2-0.7-4.3-1.4-6.5-2.2 0.3 0.1 0.6 0.2 0.9 0.3 -1.7-0.7-3.3-1.4-5-2 -3.4-1.3-6.7-2.9-9.8-4.8 -4.9-2.7-10.7-4.9-16.2-5.6 -4.5-0.5-7-0.6-11.7-0.8 -4.3 0.3-8.6 0.9-12.8 1.7 -4.1 0.6-8.1 1.4-12.1 2.4 -5.7 1.2-11.3 2.8-16.9 4.3 -3.9 1.6-7.8 3.2-11.6 4.9 -3.8 1.9-7.5 3.8-11.3 5.8 -1.9 1.1-3.7 2.2-5.6 3.3 -3.4 2.1-6.9 4.2-10.4 6.2 -4.5 2.6-9 5-14.1 6 -0.9-0.1-1.8-0.1-2.7-0.2 -2.3-0.2-4.6-0.6-6.9-1.2 -6.6-1.5-13-3.8-19.4-5.9 -1.5-0.6-3-1.2-4.5-1.8 -3.9-1.6-7.9-3.2-11.9-4.7 -9.3-3.7-18.8-6.7-28.4-9.6 -8.6-2.6-17.6-4.7-26.4-5.9 -3.1-0.4-6.2-0.9-9.4-1.3 -6.6-0.8-13.3-1.3-20-1.5 -7.2-0.2-14.5 0-21.7 0.4 -7.7 0.6-15.3 0.8-23 0.6 0.2 1.1 0.8 2 1.8 2.7 2.9 2.7 5.8 5.3 8.8 7.8 3 2.6 6 5.1 9.1 7.5C-61.2 222.1-60.2 222.6-59.1 222.6z" style="fill:#D4EDED;opacity:0.1"/><path d="M-51.6 212c4.3 0.2 8.6 0.3 12.9 0.5 7.2-0.8 14.4-1.1 21.6-0.9 9.8-0.1 19.5 1.6 29.1 3.3 -0.2-0.1-0.5-0.1-0.7-0.2 3.2 0.7 6.3 1.4 9.5 2.1 -0.2-0.1-0.5-0.1-0.7-0.2 5.5 1.4 10.9 3 16.2 4.8 4.9 1.7 9.8 3.5 14.5 5.5 8.4 3.4 16.6 7.4 24.7 11.4 5.4 2.6 10.7 5.2 16.3 7.3 3.1 1.3 6.3 2.3 9.5 3.1 4.5 1.3 8.6 1.1 13.2 0.7 3.2-0.8 6.1-2.2 8.9-4 3.5-2.4 7-4.9 10.5-7.4 9.1-6.5 18.3-12.5 28.2-17.7 7.3-3.9 15-6.8 22.9-9.3 3.8-1.1 7.6-1.9 11.5-2.6 5.7-1.2 11.4-1.3 17.2-1.2 -0.3 0-0.5 0-0.8-0.1 2.1 0.2 4.2 0.4 6.3 0.6 -0.3 0-0.5-0.1-0.8-0.1 3.4 0.6 6.7 1.6 9.8 3 3 1.5 5.7 3.3 8.2 5.5 -0.4-0.4-0.7-0.8-1.1-1.2 2.4 2.8 4.9 5.5 7.6 8.1 2.4 2.4 7.4 4.3 10.6 5 2.1 0.5 4.2 1 6.3 1.4 4.9 0.8 9.9 1.3 14.8 1.4 8.3 0.6 16.6 0.3 24.9 0.3 28.5-0.2 57.4-2.5 85.6 2.4 -0.2-0.1-0.5-0.1-0.7-0.2 2.1 0.5 4.2 1 6.3 1.5 -0.2-0.1-0.5-0.1-0.7-0.2 3.2 0.7 6 2 8.7 3.8 0.9 0.8 1.9 1.7 2.8 2.5 1.6 1.8 3.5 3 5.8 3.7 2.5 1.2 6.1 0.6 8.8 0.5 1.6-0.4 3.1-0.7 4.7-1.1 3.4-0.9 6.8-2.1 10-3.5 5.3-2.1 10.5-4.6 15.7-7 5.1-2.3 10.4-4.3 15.8-6 5.3-1.8 10.7-2.6 16.3-3.3 5.7-0.8 11.7 0 17.4 0.8 -0.2 0-0.5-0.1-0.8-0.1 6.7 1.3 13.1 2.9 19.7 4.9 2.4 0.9 4.8 1.8 7.2 2.6 5.1 2.2 10.2 4.3 15.4 6.1 5.4 2 11.2 2.4 16.9 3 5.6 0.3 11.1 0.1 16.6-0.5 5.6-0.6 11.1-1.6 16.5-2.8 8.1-1.6 16.1-4.2 24-6.6 7.6-2.3 15.2-4.6 22.9-6.8 7.3-2.1 14.6-3.5 22-4.8 4.8-0.7 9.6-1 14.5-1 4.8 0 9.6 0.4 14.4 1.2 -0.2 0-0.5-0.1-0.7-0.1 4.9 0.8 9.7 2.1 14.4 3.7 5 1.8 9.9 4 14.6 6.5 8.8 3.9 17.8 7.5 26.9 10.7 8.5 3.2 18.3 5.8 27 8.3 8.4 2.2 16.9 4.1 25.5 5.6 12 2.4 24.1 3.2 36.3 3.9 7.6 0.2 15.1 0 22.7-0.6 10.8-0.6 21.3-3.4 31.6-6.3 5.7-2 11.5-3.9 17.2-5.9 8.8-3 17.7-6 26.5-9 14.2-4.8 28.4-9.3 42.8-13.6 12.3-3.7 24.8-7.1 37.4-9.9 4.1-0.9 8.1-1.6 12.3-2.3 1.9-0.2 3.7-0.5 5.6-0.7 3-0.5 6.1-0.5 9.1-0.1 -0.3 0-0.5-0.1-0.8-0.1 2.1 0.1 3.9 0.7 5.6 2 0.7 0.4 1 0.2 0.9-0.6 -0.6-1.6-1.4-3.1-2.5-4.5 -1.9-2.7-3.8-5.4-5.7-8 -0.9-1.5-2.1-2.8-3.4-3.9 -3.4-1.1-4-1.1-7.8-1.6 -3.5-0.4-6.9-0.2-10.3 0.5 -4.1 0.7-8.1 1.3-12.2 2 -9.4 1.6-18.6 4.2-27.8 6.6 -10.7 2.9-21.4 6.3-32 9.7 -22.2 7.1-44 15.3-66 23.1 -6.3 2.1-12.7 3.7-19.2 4.7 -6.9 1.1-13.9 1.7-20.9 1.9 -7.5 0.2-15-0.1-22.5-0.8 -8.1-0.7-16.2-1.8-24.2-3.2 -13.2-2.1-26-5.8-38.8-9.4 -16.8-4.8-33-11.7-48.9-18.7 -7.7-3.4-15.9-5-24.1-6.5 -7.9-1.4-15.9-1.1-23.9-0.6 -10 0.5-19.8 3.3-29.4 5.9 -9.8 2.7-19.4 6.1-29.1 9.1 -4.9 1.5-9.9 2.9-14.9 4 -5.1 1.2-10.2 2-15.3 2.6 -5.2 0.6-10.4 0.6-15.6 0.2 -5.4-0.4-10.7-1.5-15.8-3.1 0.2 0.1 0.5 0.1 0.7 0.2 -8.2-3-16.3-6.1-24.5-8.8 -7-2.3-14.4-3.5-21.6-4.9 -4.7-0.9-8.4-0.9-13.1-0.9 -6 0-11.7 1.2-17.5 2.4 -1.8 0.6-3.6 1.2-5.4 1.8 -3.5 1.1-6.9 2.5-10.2 4.2 -4.8 2.2-9.4 4.7-14.1 7.1 -4 2-7.9 3.7-12.2 5 -3.6 1.1-6.5 0.7-10 0 0.2 0.1 0.4 0.2 0.7 0.3 -1-0.5-2.1-1-3.1-1.6 -2.2-1.7-4.5-3.3-6.8-4.7 -3.6-2.4-6.5-2.8-10.8-3.9 -6.3-1.6-12.8-2.3-19.2-3 -7.4-0.8-14.9-0.9-22.4-1.1 -16.6-0.4-33.2 0.4-49.8 0.7 -8.1 0.1-16.2 0-24.3-0.2 -2.5-0.2-5-0.4-7.5-0.6 -4.3-0.3-8.5-1.2-12.5-2.7 0.2 0.1 0.5 0.1 0.7 0.2 -1.6-0.7-3.2-1.4-4.7-2.1 -3.3-1.9-6.3-4.1-9.1-6.7 -1.5-1.2-2.9-2.3-4.4-3.5 -3.3-2.2-6.8-4-10.5-5.5 -1.9-0.5-3.9-1.1-5.8-1.6 -2.2-0.5-4.5-0.9-6.7-1.2 -6.7-0.1-13.1 0.2-19.7 0.9 -6 0.6-11.9 2.3-17.8 3.6 -5.9 1.4-11.2 4-16.6 6.5 -1.9 1-3.7 2.1-5.6 3.1 -3.8 2-7.5 4.4-10.9 7 -6.7 4.7-13 10.1-19.2 15.5 -1.2 1-2.3 2-3.5 3 -1.6 1.4-3.4 2.3-5.4 2.7 -1.1 0.1-2.3 0.1-3.4 0.2 -2.7-0.1-5.3-0.5-7.9-1.3 -5-1.2-9.8-3.2-14.5-5 -3.6-1.7-7.2-3.3-10.8-5 -4.1-1.9-8.2-3.8-12.3-5.7 -7-3.2-14.2-6-21.4-8.7 -8.2-3.1-16.7-5.4-25.3-7.6 -6.6-1.7-13.2-2.6-19.8-3.7 -14.1-2.2-28.5-1.6-42.8-0.8 0.3 0 0.5 0.1 0.8 0.1 -4.7-0.8-9.4-1.6-14.1-2.4 -0.2 0.9 0 1.7 0.7 2.5 1.6 2.6 3.4 5.1 5.2 7.6 1.8 2.5 3.6 4.9 5.6 7.3C-53.3 211.4-52.5 211.9-51.6 212z" style="fill:#D4EDED;opacity:0.1"/><path d="M-55 243.5c3.7-0.6 7.4-1.2 11.1-1.8 -0.4 0-0.8 0.1-1.2 0.1 7.3-0.7 14.6-0.9 21.9-0.9 6.7 0.1 13.3 0.6 19.9 1.4 11.6 1.1 23 4.3 34.2 7.6 9.5 2.8 18.7 6.7 27.8 10.6 8 3.4 15.8 7.3 23.8 10.5 3.3 1.4 6.6 2.6 10 3.7 3 1 6.1 1.7 9.2 2.1 3 0.4 6 0.3 9-0.3 5.1-0.6 9.8-5 13.7-7.9 6.6-4.9 14.1-8.7 21.2-12.8 9.2-5.2 19-9.4 28.9-13 -0.4 0.1-0.7 0.3-1.1 0.4 5.8-1.8 11.5-3.3 17.4-4.6 7.4-1.6 14.8-1.6 22.2-1.1 -1.1-0.2-2.1-0.4-3.2-0.5 2.7 0.5 5.5 1 8.2 1.5 -11.4-3.8-22.9-7.6-34.3-11.3 19.6 8.5 39.1 17.3 58.4 26.5 0.4 0.1 0.8 0.2 1.2 0.4 4 1.3 8 2.3 12.2 2.9 4.9 0.7 9.9 1.2 14.9 1.5 8.2 0.6 16.5 0.5 24.8 0.5 26.5 0.1 53.1-1.3 79.5 1.8 -0.4-0.1-0.8-0.1-1.3-0.2 3.9 0.5 7.7 1.3 11.5 2.3 3 0.8 5.9 2 8.6 3.6 -2.9-2.1-5.8-4.2-8.7-6.3 4.7 3.6 9.4 7.3 14.1 10.9 1.5 0.6 3 1.1 4.6 1.6 2.9 0.5 5.7 0.4 8.6-0.2 3.3-0.6 6.5-1.4 9.7-2.6 6.9-2.1 13.5-5.3 20.2-7.9 3.4-1.4 6.8-2.6 10.3-3.8 5.2-1.8 10.5-2.9 15.9-3.9 -0.4 0.1-0.8 0.1-1.2 0.2 1.9-0.2 3.7-0.4 5.6-0.6 3.8-0.3 7.7-0.4 11.5-0.1 6.3 0.1 12.6 1.7 18.7 3 7.4 1.6 14.6 4.5 21.7 7.2 3 1.3 6 2.3 9.2 2.9 5.4 1.4 10.9 2.3 16.4 2.6 8.3 0.9 16.8-0.4 25-1.5 8.2-1.1 16.3-3.3 24.2-5.4 7.8-2 15.4-4.4 23.2-6.6 9.7-2.8 19.5-4.9 29.5-6.6 -0.4 0.1-0.8 0.1-1.2 0.2 4.8-0.7 9.6-1 14.4-1.1 4.8 0 9.6 0.3 14.3 1 4.9 0.7 9.7 1.8 14.3 3.4 2.4 0.9 4.8 1.8 7.3 2.6 6.8 3.2 13.8 6.1 21 8.6 13.4 5.2 27.3 9.1 41.2 12.9 8.4 2.2 17 4 25.6 5.6 12 2.4 24.1 3.2 36.2 4 7.5 0.3 15.1 0.1 22.6-0.5 7.2-0.6 14.3-1.6 21.3-3.2 6.3-1.5 12.5-3.3 18.7-5.5 8.7-2.8 17.5-5.6 26.2-8.4 27.2-8.7 54.5-17.4 82.3-24.3 -0.4 0.1-0.8 0.2-1.2 0.3 11-2.5 22.2-5.2 33.6-4.8 -3.3-0.8-6.5-1.7-9.8-2.5 4.1 1.2 8.1 2.4 12.2 3.6 1.4 0.8 2.9 1.1 4.5 0.8 0.5-1.3-11.9-6-10.1-5.3 -6.1-2.5-12.2-5-18.3-7.4 -2.2-0.8-4.3-1.6-6.5-2.4 -1.4-0.8-2.9-1.1-4.5-0.8 -7.1 1.4-14.1 3.1-21 5 -2 0.4-3.9 0.9-5.9 1.3 -6.8 1.6-13.6 3.2-20.3 4.9 -27.7 6.9-55.2 14.6-83.2 19.9 -14.2 2.7-28.9 2.9-43.3 3 -18.1 0-36.3-2.9-54.1-5.7 -22-3.4-43.7-8.6-65.3-13.7 -9.5-2.2-18.3-4.3-27.9-6.4 -3.2-0.7-6.5-1.1-9.7-1.3 -2.7-0.2-5.4-0.4-8.2-0.5 -5.6-0.1-9.9 0-15.5 0.2 -12.4 0.5-24.7 3-36.8 5.2 -12.3 2.2-24.5 4.4-36.9 6 -12.5 1.5-25 1.4-37.5 0.7 -13.6-0.7-27.2-3.2-40.6-5.1 -9.9-1.4-19.9-1.7-29.9-1.5 -4.5 0.1-9.3 0.1-13.7 0.8 -11.2 1.7-22.2 4.1-33.3 6.3 0.4-0.1 0.8-0.1 1.2-0.2 -3.7 0.4-7.3 0.8-11 1.2 0.4 0 0.8 0 1.2-0.1 -3.4 0-6.8-0.1-10.1-0.3 0.4 0 0.8 0 1.2 0.1 -4.3-0.6-8.4-1.5-12.6-2.5 0.4 0.1 0.8 0.2 1.2 0.3 -2.7-1-5.5-1.8-8.4-2.1 -1.2-0.3-2.4-0.6-3.6-1 -2.5-0.2-5.1-0.6-7.5-1.2 -4.7-1-9.6-1-14.4-1.4 -2.1-0.1-4.1-0.1-6.2-0.2 -4.3-0.4-8.6-0.7-13-0.9 -31.7-2.1-63.5-1.8-95-6.3 -6.7-1-13.4-2.7-20-4.4 -1.9-0.4-3.8-0.7-5.7-1.1 -3.6-0.2-7.1-0.6-10.7-1.2 -1.5-0.1-3-0.1-4.5-0.2 -1.6 0-3.2 0-4.8-0.1 -5.3 0.4-10.3 1-15.5 2 -5.4 1-10.6 2.9-15.8 4.3 -5.7 1.6-11.4 3.4-17.1 5 -10.2 2.9-19.9 7.1-29.8 10.9 0.4-0.1 0.7-0.2 1.1-0.3 -4.1 1.2-8.2 2.4-12.2 3.6 0.4-0.1 0.8-0.2 1.2-0.3 -3.3 0.3-6.6 0.5-9.8 0.6 -2.4-0.4-4.8-1-7.2-1.7 -1.9-0.4-3.7-1.1-5.4-2.1 -0.4-0.1-0.8-0.3-1.2-0.4 -2.4-0.5-4.7-1.3-6.9-2.2 -3-0.7-6-1.5-8.9-2.4 -3.7-0.8-7.4-1.7-11.1-2.7 -3.9-1.2-7.8-2.3-11.7-3.3 -6.8-1.9-13.6-3.3-20.5-4.8 -19.3-4.1-39-5.5-58.7-5.6 -6.8 0-13.7 0.4-20.5 0.8 -3.6 0.3-7.2 0.5-10.8 0.8 -3.7 0.2-7.4 0.5-11.1 0.7 -3.9 0.3-7.8 0.9-11.7 1.6 0.9 1.2 2.2 2 3.7 2.4 5 2.1 10.1 4.2 15.2 6.1 5.1 2 10.2 3.9 15.4 5.7C-58 243.5-56.5 243.7-55 243.5z" style="fill:#D4EDED;opacity:0.1"/><path d="M-56.2 229.2c7.4-1.5 14.8-2.3 22.4-2.4 10.2-0.6 20.4 0.3 30.6 1.3 14.3 1.4 28.2 5.6 41.7 10.1 19.7 6.6 37.6 17.5 57.6 23.2 2.9 0.8 5.9 1.1 9 1.2 5 0.4 9.2-1.9 13.4-4.1 3.3-2.3 6.6-4.5 10-6.6 5.3-3.4 10.8-6.6 16.2-9.8 9.2-5.3 18.9-9.5 28.8-13.2 10.9-4.1 22.6-5.7 34.1-5.9 -0.4 0-0.8 0-1.2 0 2.2 0.1 4.4 0.3 6.6 0.4 -0.4 0-0.8-0.1-1.2-0.1 1.7 0.3 3.3 0.6 5 0.9 3.2 0.7 6.2 1.9 9 3.5 -0.9-0.6-1.7-1.2-2.6-1.7 2.2 1.5 4.3 3 6.5 4.4 -0.8-0.6-1.7-1.3-2.5-1.9 3 2.8 6.1 5.5 9.2 8.1 1.9 0.9 3.9 1.9 5.8 2.8 3.9 1.4 7.9 2.5 12.1 3.2 7.4 1.6 15.2 1.6 22.7 2 8.4 0.4 16.9 0.2 25.3 0.2 16.6-0.1 33.2-0.3 49.8 0.1 7.1 0.2 14.1 0.9 21.1 1.7 5.6 0.6 11 2.1 16.4 3.8 -0.4-0.1-0.7-0.3-1.1-0.4 2.5 0.9 4.8 2.3 6.7 4.2 2.9 2.4 3.5 2.6 7.1 3.9 1.3 0.1 2.7 0.3 4 0.4 3.1 0 6.2-0.4 9.2-1.1 5.1-1 10.1-3.1 14.9-5 5.1-1.9 10.2-4.1 15.3-6.1 5.1-2 10.4-3.4 15.7-4.8 5.4-1.4 11-1.7 16.6-2 6-0.3 12 0.8 17.9 1.8 -0.4-0.1-0.8-0.2-1.1-0.2 2.6 0.6 5.1 1.1 7.7 1.7 -0.4-0.1-0.8-0.2-1.1-0.3 2.7 0.7 5.3 1.4 8 2.2 -0.4-0.1-0.7-0.2-1.1-0.3 2.8 0.9 5.6 1.8 8.4 2.7 -0.4-0.1-0.7-0.2-1.1-0.4 5.5 2.2 11.1 4.1 16.7 5.9 7.9 2.6 16.5 2.7 24.7 2.9 5.6-0.1 11.1-0.6 16.6-1.5 8.2-1 16.3-3.2 24.2-5.3 12.8-3.2 25.3-7.2 38.1-10.4 7.2-1.8 14.5-2.7 21.8-3.5 7.2-0.8 14.3-0.1 21.5 0.6 -0.4-0.1-0.8-0.1-1.1-0.2 2.8 0.5 5.5 1 8.3 1.6 -0.4-0.1-0.8-0.2-1.1-0.3 2.8 0.7 5.6 1.5 8.4 2.2 -0.4-0.1-0.8-0.2-1.1-0.3 5.1 1.6 10 3.5 14.7 5.8 9.3 3.8 18.7 7.3 28.2 10.5 8.7 2.9 17.6 5.5 26.5 7.9 12.5 3.5 25.2 5.5 37.9 7.5 7.9 1.1 15.9 1.8 23.8 2.1 7.5 0.3 15.1 0.2 22.6-0.4 16.8-0.8 32.8-6.1 48.7-11.1 25.7-8.1 51.4-16.5 77.3-23.9 9.7-2.8 19.5-5.3 29.4-7.5 8.8-2 17.7-3.6 26.8-3.3 -0.4 0-0.8-0.1-1.2-0.1 1.1 0.2 2.2 0.4 3.3 0.6 -0.9-0.5-1.9-1-2.8-1.5 1.7 0.9 3.3 1.8 5 2.7 1.3 0.6 1.5 0.3 0.6-0.8 -2.3-2.3-4.8-4.4-7.4-6.2 -4.9-3.8-9.9-7.5-14.9-11.2 -1.8-1.3-3.6-2.5-5.3-3.8 -1.1-1.1-2.4-1.7-3.9-1.8 -5.9 0.2-11.5 1.2-17.3 2.5 -4 1.1-7.9 2-12 2.7 -6.8 1.4-13.6 3.1-20.4 4.8 -27.2 6.7-54.1 14.8-81.3 21.7 -10.5 2.6-21.1 4.2-31.8 5.7 -6.3 0.7-12.7 1-19.1 1 -10.7 0.2-21.4-1.1-32.1-2.2 -21.3-2.3-42.3-7.3-63.1-12.5 -9.4-2.5-18.9-5.1-28.2-7.9 -5-1.4-10-2.8-15.1-4.2 -5.8-1.5-11.7-2.6-17.6-3.3 -10.7-1.6-21.6-0.9-32.3 0 -12.4 1-24.7 3.9-36.9 6.5 -11.8 2.5-23.6 4.9-35.5 6.6 -12.2 1.7-24.5 1.4-36.7 0.2 -5.4-0.7-10.8-1.6-16.2-2.8 -3-0.6-5.9-1.3-8.9-1.9 -5.7-1.3-11.5-2.3-17.4-2.9 -5.1-0.6-10.3-1-15.4-1.2 -2.3-0.1-4.6-0.2-6.8-0.3 -4.3-0.2-8.5 0.1-12.7 0.8 -9.4 1.1-18.6 3.6-27.7 6.1 -6.8 1.9-13.7 3.5-20.8 4 -4.3 0.3-8.5-0.6-12.8-1.4 -2.3-0.7-4.6-1.3-7-1.9 -1.3-0.5-2.5-0.9-3.8-1.4 -3.1-1-6.2-1.7-9.5-2.2 -4.1-0.6-8.2-1-12.4-1.2 -2.1-0.2-4.2-0.5-6.3-0.7 -4.6-0.4-9.3-0.8-13.9-1 -13.1-0.8-26.3-0.9-39.5-1.2 -13.5-0.3-27-0.7-40.5-1.7 -4.9-0.4-9.7-1-14.5-1.9 -6-0.9-11.8-3.2-17.6-5 -3.8-0.8-7.5-1.9-11.1-3.3 -5.5-1.8-11-2.3-16.7-2.7 -4.1 0-8.1 0.2-12.1 0.7 -2.1 0.4-4.3 0.8-6.4 1.2 -4.2 1-8.3 2-12.5 2.9 -7.7 1.7-15.4 3.9-23 6 -3.9 1.5-7.7 3.1-11.5 4.7 -5.5 2.3-10.9 5-16.3 7.5 -3 1.6-6.2 2.9-9.4 3.9 -1.4 0.5-2.7 0.9-4.1 1.4 -1.8 0.4-3.7 0.6-5.5 0.7 -1.4 0.1-2.8-0.1-4.2-0.7 -1-0.2-2-0.4-3.1-0.6 -2.5-0.8-5-1.5-7.6-2.1 -9.3-2.3-18.3-5.5-27.3-8.6 -11.9-4.1-24-7.4-36.2-10.3 -15.2-3.5-30.6-4.9-46.1-5.8 -7.1-0.2-14.1-0.2-21.2 0.2 -3.7 0.2-7.3 0.4-11 0.6 -7.2 0-14.4 0.6-21.6 1.7 0.5 1.4 1.5 2.4 2.8 3.2 4.1 3.3 8.2 6.5 12.5 9.6 4.2 3.2 8.4 6.2 12.7 9.2C-59 228.5-57.7 229.1-56.2 229.2z" style="fill:#D4EDED;opacity:0.1"/></g></g></g></g></g></svg>